<?xml version="1.0" encoding="UTF-8" standalone="no"?>
<!-- Created with Inkscape (http://www.inkscape.org/) -->

<svg
   xmlns:dc="http://purl.org/dc/elements/1.1/"
   xmlns:cc="http://creativecommons.org/ns#"
   xmlns:rdf="http://www.w3.org/1999/02/22-rdf-syntax-ns#"
   xmlns:svg="http://www.w3.org/2000/svg"
   xmlns="http://www.w3.org/2000/svg"
   xmlns:sodipodi="http://sodipodi.sourceforge.net/DTD/sodipodi-0.dtd"
   xmlns:inkscape="http://www.inkscape.org/namespaces/inkscape"
   width="297mm"
   height="210mm"
   viewBox="0 0 297 210"
   version="1.1"
   id="svg15059"
   inkscape:version="0.92.1 r"
   sodipodi:docname="backdrop_3.svg"
   inkscape:export-filename="/home/josh/android/fishtank/assets_local/backdrop_3.png"
   inkscape:export-xdpi="202.86276"
   inkscape:export-ydpi="202.86276">
  <defs
     id="defs15053">
    <filter
       inkscape:collect="always"
       style="color-interpolation-filters:sRGB"
       id="filter19785"
       x="-0.09847904"
       width="1.1969581"
       y="-0.0060235601"
       height="1.0120471">
      <feGaussianBlur
         inkscape:collect="always"
         stdDeviation="0.071090738"
         id="feGaussianBlur19787" />
    </filter>
    <filter
       inkscape:collect="always"
       style="color-interpolation-filters:sRGB"
       id="filter19789"
       x="-0.0024438188"
       width="1.0048876"
       y="-0.0025937408"
       height="1.0051875">
      <feGaussianBlur
         inkscape:collect="always"
         stdDeviation="0.071090738"
         id="feGaussianBlur19791" />
    </filter>
    <filter
       inkscape:collect="always"
       style="color-interpolation-filters:sRGB"
       id="filter19793"
       x="-0.0038469491"
       width="1.0076939"
       y="-0.0036031456"
       height="1.0072063">
      <feGaussianBlur
         inkscape:collect="always"
         stdDeviation="0.071090738"
         id="feGaussianBlur19795" />
    </filter>
    <filter
       inkscape:collect="always"
       style="color-interpolation-filters:sRGB"
       id="filter19797"
       x="-0.098476634"
       width="1.1969533"
       y="-0.006023558"
       height="1.0120471">
      <feGaussianBlur
         inkscape:collect="always"
         stdDeviation="0.071090738"
         id="feGaussianBlur19799" />
    </filter>
    <filter
       inkscape:collect="always"
       style="color-interpolation-filters:sRGB"
       id="filter19801"
       x="-0.09847904"
       width="1.1969581"
       y="-0.006023558"
       height="1.0120471">
      <feGaussianBlur
         inkscape:collect="always"
         stdDeviation="0.071090738"
         id="feGaussianBlur19803" />
    </filter>
    <filter
       inkscape:collect="always"
       style="color-interpolation-filters:sRGB"
       id="filter19805"
       x="-0.09847695"
       width="1.1969539"
       y="-0.0060235601"
       height="1.0120471">
      <feGaussianBlur
         inkscape:collect="always"
         stdDeviation="0.071090738"
         id="feGaussianBlur19807" />
    </filter>
    <filter
       inkscape:collect="always"
       style="color-interpolation-filters:sRGB"
       id="filter19809"
       x="-0.098475055"
       width="1.1969501"
       y="-0.0060235574"
       height="1.0120471">
      <feGaussianBlur
         inkscape:collect="always"
         stdDeviation="0.071090738"
         id="feGaussianBlur19811" />
    </filter>
    <filter
       inkscape:collect="always"
       style="color-interpolation-filters:sRGB"
       id="filter19813"
       x="-0.00082264621"
       width="1.0016453"
       y="-0.0055141336"
       height="1.0110283">
      <feGaussianBlur
         inkscape:collect="always"
         stdDeviation="0.071090738"
         id="feGaussianBlur19815" />
    </filter>
    <filter
       inkscape:collect="always"
       style="color-interpolation-filters:sRGB"
       id="filter19817"
       x="-0.0033320042"
       width="1.006664"
       y="-0.0082762691"
       height="1.0165525">
      <feGaussianBlur
         inkscape:collect="always"
         stdDeviation="0.071090738"
         id="feGaussianBlur19819" />
    </filter>
    <filter
       inkscape:collect="always"
       style="color-interpolation-filters:sRGB"
       id="filter19821"
       x="-0.0018344064"
       width="1.0036688"
       y="-0.0082143623"
       height="1.0164287">
      <feGaussianBlur
         inkscape:collect="always"
         stdDeviation="0.071090738"
         id="feGaussianBlur19823" />
    </filter>
    <filter
       inkscape:collect="always"
       style="color-interpolation-filters:sRGB"
       id="filter19825"
       x="-0.0019400561"
       width="1.0038801"
       y="-0.0073967584"
       height="1.0147935">
      <feGaussianBlur
         inkscape:collect="always"
         stdDeviation="0.071090738"
         id="feGaussianBlur19827" />
    </filter>
    <filter
       inkscape:collect="always"
       style="color-interpolation-filters:sRGB"
       id="filter19829"
       x="-0.19633942"
       width="1.3926788"
       y="-0.16492502"
       height="1.32985">
      <feGaussianBlur
         inkscape:collect="always"
         stdDeviation="0.32313853"
         id="feGaussianBlur19831" />
    </filter>
    <filter
       inkscape:collect="always"
       style="color-interpolation-filters:sRGB"
       id="filter19833"
       x="-0.16687295"
       width="1.3337459"
       y="-0.19213465"
       height="1.3842693">
      <feGaussianBlur
         inkscape:collect="always"
         stdDeviation="0.32313853"
         id="feGaussianBlur19835" />
    </filter>
    <filter
       inkscape:collect="always"
       style="color-interpolation-filters:sRGB"
       id="filter19837"
       x="-0.18977531"
       width="1.3795506"
       y="-0.17031479"
       height="1.3406296">
      <feGaussianBlur
         inkscape:collect="always"
         stdDeviation="0.32313853"
         id="feGaussianBlur19839" />
    </filter>
    <filter
       inkscape:collect="always"
       style="color-interpolation-filters:sRGB"
       id="filter19841"
       x="-0.16687295"
       width="1.3337459"
       y="-0.19213465"
       height="1.3842693">
      <feGaussianBlur
         inkscape:collect="always"
         stdDeviation="0.32313853"
         id="feGaussianBlur19843" />
    </filter>
    <filter
       inkscape:collect="always"
       style="color-interpolation-filters:sRGB"
       id="filter19845"
       x="-0.18977531"
       width="1.3795506"
       y="-0.17031479"
       height="1.3406296">
      <feGaussianBlur
         inkscape:collect="always"
         stdDeviation="0.32313853"
         id="feGaussianBlur19847" />
    </filter>
    <filter
       inkscape:collect="always"
       style="color-interpolation-filters:sRGB"
       id="filter19849"
       x="-0.0050604873"
       width="1.010121"
       y="-0.01097451"
       height="1.021949">
      <feGaussianBlur
         inkscape:collect="always"
         stdDeviation="0.071090738"
         id="feGaussianBlur19851" />
    </filter>
    <filter
       inkscape:collect="always"
       style="color-interpolation-filters:sRGB"
       id="filter19853"
       x="-0.0084396154"
       width="1.0168792"
       y="-0.020362254"
       height="1.0407245">
      <feGaussianBlur
         inkscape:collect="always"
         stdDeviation="0.071090738"
         id="feGaussianBlur19855" />
    </filter>
    <filter
       inkscape:collect="always"
       style="color-interpolation-filters:sRGB"
       id="filter19857"
       x="-0.0047336598"
       width="1.0094673"
       y="-0.045554789"
       height="1.0911096">
      <feGaussianBlur
         inkscape:collect="always"
         stdDeviation="0.071090738"
         id="feGaussianBlur19859" />
    </filter>
    <filter
       inkscape:collect="always"
       style="color-interpolation-filters:sRGB"
       id="filter19861"
       x="-0.011988986"
       width="1.023978"
       y="-0.015271691"
       height="1.0305434">
      <feGaussianBlur
         inkscape:collect="always"
         stdDeviation="0.071090738"
         id="feGaussianBlur19863" />
    </filter>
    <filter
       inkscape:collect="always"
       style="color-interpolation-filters:sRGB"
       id="filter19865"
       x="-0.012828221"
       width="1.0256564"
       y="-0.012828221"
       height="1.0256564">
      <feGaussianBlur
         inkscape:collect="always"
         stdDeviation="0.071090738"
         id="feGaussianBlur19867" />
    </filter>
    <filter
       inkscape:collect="always"
       style="color-interpolation-filters:sRGB"
       id="filter19869"
       x="-0.013793782"
       width="1.0275876"
       y="-0.079406492"
       height="1.158813">
      <feGaussianBlur
         inkscape:collect="always"
         stdDeviation="0.071090738"
         id="feGaussianBlur19871" />
    </filter>
    <filter
       inkscape:collect="always"
       style="color-interpolation-filters:sRGB"
       id="filter19873"
       x="-0.018865029"
       width="1.0377301"
       y="-0.016238254"
       height="1.0324765">
      <feGaussianBlur
         inkscape:collect="always"
         stdDeviation="0.071090738"
         id="feGaussianBlur19875" />
    </filter>
  </defs>
  <sodipodi:namedview
     id="base"
     pagecolor="#cecece"
     bordercolor="#666666"
     borderopacity="1.0"
     inkscape:pageopacity="0"
     inkscape:pageshadow="2"
     inkscape:zoom="2.8133224"
     inkscape:cx="577.81624"
     inkscape:cy="51.143965"
     inkscape:document-units="mm"
     inkscape:current-layer="layer1"
     showgrid="false"
     inkscape:snap-nodes="false"
     inkscape:window-width="1918"
     inkscape:window-height="1042"
     inkscape:window-x="0"
     inkscape:window-y="18"
     inkscape:window-maximized="0" />
  <metadata
     id="metadata15056">
    <rdf:RDF>
      <cc:Work
         rdf:about="">
        <dc:format>image/svg+xml</dc:format>
        <dc:type
           rdf:resource="http://purl.org/dc/dcmitype/StillImage" />
        <dc:title></dc:title>
      </cc:Work>
    </rdf:RDF>
  </metadata>
  <g
     inkscape:label="Layer 1"
     inkscape:groupmode="layer"
     id="layer1"
     transform="translate(0,-87)">
    <g
       id="g15721"
       style="filter:url(#filter19785)">
      <path
         sodipodi:nodetypes="cccccccccccccccccccccccccccccc"
         style="fill:#6d8261;fill-opacity:1;stroke:#475845;stroke-width:0.15;stroke-linecap:butt;stroke-linejoin:miter;stroke-miterlimit:4;stroke-dasharray:none;stroke-opacity:0.98019803"
         d="m 43.372768,270.30543 c -0.141741,-0.59058 0.165364,-1.6064 0.165364,-1.6064 0.47247,-0.25986 0.307108,-1.1103 0.307108,-1.1103 -0.307108,-0.35436 0.0106,-1.05349 0.0106,-1.05349 L 43.8196,265.4477 c 0,0 0.579758,-1.27668 0.07247,-1.84409 0,0 -0.398587,-0.85112 -0.108708,-1.74953 0,0 0.543522,-0.66197 0.108704,-1.60767 0,0 -0.434818,-0.99297 -0.07247,-1.84408 0,0 0.579755,-1.56039 -3e-6,-1.98595 0,0 -0.434818,-0.89842 0,-1.65495 0,0 0.507288,-1.18212 0.07247,-1.89139 0,0 -0.507285,-1.04025 3e-6,-1.70223 0,0 0.471053,-0.80383 0,-1.65496 0,0 -0.362348,-0.94568 -0.07247,-1.79681 0,0 0.54352,-1.22939 0.07247,-1.70223 0,0 -0.398583,-0.99298 -0.181174,-1.79681 0,0 0.326113,-1.27668 -0.05696,-1.90902 -0.541476,-0.48788 -0.894507,0.11221 -0.894507,0.11221 -0.326113,0.52013 0,1.79681 0,1.79681 0.217409,0.80383 -0.181174,1.79681 -0.181174,1.79681 -0.47105,0.47284 0.07247,1.70223 0.07247,1.70223 0.289878,0.85113 -0.07247,1.79681 -0.07247,1.79681 -0.471053,0.85113 0,1.65496 0,1.65496 0.507288,0.66198 3e-6,1.70223 3e-6,1.70223 -0.434818,0.70927 0.07247,1.89139 0.07247,1.89139 0.434818,0.75653 0,1.65495 0,1.65495 -0.579758,0.42556 -3e-6,1.98595 -3e-6,1.98595 0.362348,0.85112 -0.07247,1.84408 -0.07247,1.84408 -0.434818,0.9457 0.108704,1.60767 0.108704,1.60767 0.289879,0.89841 -0.108708,1.74953 -0.108708,1.74953 -0.507288,0.56741 0.07247,1.84409 0.07247,1.84409 l -0.03624,1.08754 c 0,0 0.356691,0.48653 0.04959,0.98262 0,0 -0.283487,0.89769 0.118113,1.08668 0,0 0.283482,0.87407 0.07087,1.70089 0,0 0.212613,0.3071 0.519718,0 z"
         id="path15616"
         inkscape:connector-curvature="0" />
      <path
         inkscape:connector-curvature="0"
         id="path15618"
         d="m 43.160156,268.48642 c 0,0 -0.07087,-2.10249 0.118118,-2.52772 0,0 0.141741,-1.18117 -0.02362,-1.84262 0,0 -0.141745,-1.37016 -0.04725,-1.65364 0,0 0.04725,-0.8977 0.04725,-1.65366 0,0 0.118114,-1.0158 -0.04725,-1.48827 0,0 -0.165366,-1.27567 -0.02362,-1.44104 0,0 0.16536,-0.94495 0.07087,-1.2993 0,0 -0.425227,-2.2206 -4e-6,-2.83481 0,0 0.165365,-1.41742 0.07087,-1.65366 0,0 0.165365,-1.53553 -0.07087,-2.10249 0,0 -0.236235,-2.17336 -0.04725,-2.50408 0,0 0.165368,-2.14974 0.0945,-2.45686 0.07087,-0.0945 -0.236238,-1.67726 -0.141744,-1.819"
         style="fill:none;stroke:#475845;stroke-width:0.065;stroke-linecap:butt;stroke-linejoin:miter;stroke-miterlimit:4;stroke-dasharray:none;stroke-opacity:0.6980198" />
    </g>
    <g
       id="g15816"
       transform="translate(-1.6226127,0.03895536)"
       style="filter:url(#filter19789)">
      <path
         sodipodi:nodetypes="cccccccc"
         inkscape:connector-curvature="0"
         id="path15691"
         d="m 139.51566,212.94151 -0.53068,-1.2518 c 0,0 -2.70939,1.60211 -3.64497,1.333 0,0 -0.39949,-1.30566 3.58845,-2.07184 0,0 1.24462,-1.54512 3.58156,-1.3614 0,0 -0.0943,0.74636 -3.08773,1.92073 l 0.63334,1.37295 z"
         style="fill:#bdbd85;fill-opacity:1;stroke:#000000;stroke-width:0.2;stroke-linecap:butt;stroke-linejoin:miter;stroke-miterlimit:4;stroke-dasharray:none;stroke-opacity:1" />
      <path
         inkscape:connector-curvature="0"
         id="path15689"
         d="m 141.63838,214.34669 -1.00004,-2.15645 c 0,0 -1.5484,-0.19279 -1.86357,1.04601 l 0.85184,2.18566 1.23033,1.61324 0.87425,-1.55264 z"
         style="fill:#858585;fill-opacity:1;stroke:#000000;stroke-width:0.2;stroke-linecap:butt;stroke-linejoin:miter;stroke-miterlimit:4;stroke-dasharray:none;stroke-opacity:1" />
      <path
         inkscape:connector-curvature="0"
         id="path15693"
         d="m 169.17838,243.8018 c 0,0 10.94111,1.15374 20.81532,5.78334 l 7.75577,9.36661 c 0,0 0.39977,0.58773 -9.66057,4.79638 l -6.62819,-1.48527 -12.88509,-13.08262 0.0179,-4.69241 z"
         style="fill:#323232;fill-opacity:1;stroke:#000000;stroke-width:0.26458335px;stroke-linecap:butt;stroke-linejoin:miter;stroke-opacity:1" />
      <path
         sodipodi:nodetypes="cccccccccc"
         inkscape:connector-curvature="0"
         id="path15681"
         d="m 188.80345,263.16309 c -25.43217,-33.72208 -42.7025,-47.01856 -42.7025,-47.01856 l 3.70475,-6.15984 -2.57025,-4.95937 -7.07545,8.64405 -12.22441,-0.0402 1.91854,5.83262 8.49718,1.38942 c 0,0 6.26518,24.27749 21.18783,49.95469 z"
         style="fill:#3d3d3d;fill-opacity:1;stroke:#000000;stroke-width:0.2;stroke-linecap:butt;stroke-linejoin:miter;stroke-miterlimit:4;stroke-dasharray:none;stroke-opacity:1" />
    </g>
    <g
       id="g15891"
       style="filter:url(#filter19793)"
       transform="translate(0,0.09404657)">
      <path
         inkscape:connector-curvature="0"
         id="path15831"
         d="m 137.49609,223.59665 c 0,0 7.52372,0.94047 9.54573,1.31665 l 5.73684,4.56127 -1.78689,12.79033 -4.79637,5.21958"
         style="fill:none;stroke:#363636;stroke-width:0.1;stroke-linecap:butt;stroke-linejoin:miter;stroke-miterlimit:4;stroke-dasharray:none;stroke-opacity:1" />
      <path
         inkscape:connector-curvature="0"
         id="path15833"
         d="m 152.73163,229.42754 5.36066,8.60526 10.11,1.69284"
         style="fill:none;stroke:#363636;stroke-width:0.1;stroke-linecap:butt;stroke-linejoin:miter;stroke-miterlimit:4;stroke-dasharray:none;stroke-opacity:1" />
      <path
         inkscape:connector-curvature="0"
         id="path15835"
         d="m 158.13931,238.0328 2.30414,19.56169"
         style="fill:none;stroke:#363636;stroke-width:0.1;stroke-linecap:butt;stroke-linejoin:miter;stroke-miterlimit:4;stroke-dasharray:none;stroke-opacity:1" />
      <path
         inkscape:connector-curvature="0"
         id="path15837"
         d="m 154.4715,256.08974 4.74935,-8.98145"
         style="fill:none;stroke:#363636;stroke-width:0.1;stroke-linecap:butt;stroke-linejoin:miter;stroke-miterlimit:4;stroke-dasharray:none;stroke-opacity:1" />
      <path
         inkscape:connector-curvature="0"
         id="path15839"
         d="m 165.61601,253.55049 c 0.14107,-0.1881 7.94694,-7.47671 7.94694,-7.47671"
         style="fill:none;stroke:#363636;stroke-width:0.1;stroke-linecap:butt;stroke-linejoin:miter;stroke-miterlimit:4;stroke-dasharray:none;stroke-opacity:1" />
      <path
         inkscape:connector-curvature="0"
         id="path15841"
         d="m 141.30497,210.24204 2.2101,14.15401"
         style="fill:none;stroke:#363636;stroke-width:0.1;stroke-linecap:butt;stroke-linejoin:miter;stroke-miterlimit:4;stroke-dasharray:none;stroke-opacity:1" />
      <path
         inkscape:connector-curvature="0"
         id="path15843"
         d="m 152.73163,229.42754 -7.33563,0.6113 -6.39517,-6.25409"
         style="fill:none;stroke:#363636;stroke-width:0.1;stroke-linecap:butt;stroke-linejoin:miter;stroke-miterlimit:4;stroke-dasharray:none;stroke-opacity:1" />
      <path
         inkscape:connector-curvature="0"
         id="path15845"
         d="m 132.2765,220.06991 10.34513,-0.84642"
         style="fill:none;stroke:#363636;stroke-width:0.1;stroke-linecap:butt;stroke-linejoin:miter;stroke-miterlimit:4;stroke-dasharray:none;stroke-opacity:1" />
      <path
         inkscape:connector-curvature="0"
         id="path15847"
         d="m 131.47711,219.88181 10.20405,-7.28861"
         style="fill:none;stroke:#363636;stroke-width:0.1;stroke-linecap:butt;stroke-linejoin:miter;stroke-miterlimit:4;stroke-dasharray:none;stroke-opacity:1" />
      <path
         inkscape:connector-curvature="0"
         id="path15849"
         d="m 150.33345,227.59363 0.42321,-6.11302"
         style="fill:none;stroke:#363636;stroke-width:0.1;stroke-linecap:butt;stroke-linejoin:miter;stroke-miterlimit:4;stroke-dasharray:none;stroke-opacity:1" />
      <path
         inkscape:connector-curvature="0"
         id="path15851"
         d="m 175.82856,256.76692 -1.16377,-9.44314"
         style="fill:none;stroke:#363636;stroke-width:0.1;stroke-linecap:butt;stroke-linejoin:miter;stroke-miterlimit:4;stroke-dasharray:none;stroke-opacity:1" />
      <path
         inkscape:connector-curvature="0"
         id="path15866"
         d="m 146.50163,229.93378 -4.68831,6.48384"
         style="fill:none;stroke:#363636;stroke-width:0.1;stroke-linecap:butt;stroke-linejoin:miter;stroke-miterlimit:4;stroke-dasharray:none;stroke-opacity:1" />
    </g>
    <g
       id="g15736"
       style="filter:url(#filter19797)">
      <path
         inkscape:connector-curvature="0"
         id="path15643"
         d="m 150.05655,261.98996 c -0.14174,-0.59059 0.16536,-1.6064 0.16536,-1.6064 0.47247,-0.25986 0.30711,-1.1103 0.30711,-1.1103 -0.30711,-0.35436 0.0106,-1.05349 0.0106,-1.05349 l -0.0362,-1.08754 c 0,0 0.57976,-1.27668 0.0725,-1.8441 0,0 -0.39859,-0.85111 -0.10871,-1.74952 0,0 0.54352,-0.66198 0.10871,-1.60768 0,0 -0.43482,-0.99296 -0.0725,-1.84408 0,0 0.57975,-1.56039 -1e-5,-1.98595 0,0 -0.43482,-0.89841 0,-1.65495 0,0 0.50729,-1.18212 0.0725,-1.89138 0,0 -0.50728,-1.04026 1e-5,-1.70224 0,0 0.47105,-0.80383 0,-1.65496 0,0 -0.36235,-0.94568 -0.0725,-1.79681 0,0 0.54352,-1.22939 0.0725,-1.70223 0,0 -0.39859,-0.99298 -0.18118,-1.79681 0,0 0.32611,-1.27668 -0.057,-1.90902 -0.54147,-0.48788 -0.89451,0.11221 -0.89451,0.11221 -0.32611,0.52013 0,1.79681 0,1.79681 0.21741,0.80383 -0.18117,1.79681 -0.18117,1.79681 -0.47105,0.47284 0.0725,1.70223 0.0725,1.70223 0.28988,0.85113 -0.0725,1.79681 -0.0725,1.79681 -0.47105,0.85113 0,1.65496 0,1.65496 0.50729,0.66198 0,1.70224 0,1.70224 -0.43481,0.70926 0.0725,1.89138 0.0725,1.89138 0.43482,0.75654 0,1.65495 0,1.65495 -0.57975,0.42556 0,1.98595 0,1.98595 0.36235,0.85112 -0.0725,1.84408 -0.0725,1.84408 -0.43482,0.9457 0.1087,1.60768 0.1087,1.60768 0.28988,0.89841 -0.1087,1.74952 -0.1087,1.74952 -0.50729,0.56742 0.0725,1.8441 0.0725,1.8441 l -0.0362,1.08754 c 0,0 0.35669,0.48652 0.0496,0.98262 0,0 -0.28349,0.89769 0.11811,1.08668 0,0 0.28348,0.87407 0.0709,1.70089 0,0 0.21261,0.3071 0.51972,0 z"
         style="fill:#6d8261;fill-opacity:1;stroke:#475845;stroke-width:0.15;stroke-linecap:butt;stroke-linejoin:miter;stroke-miterlimit:4;stroke-dasharray:none;stroke-opacity:0.86138612"
         sodipodi:nodetypes="cccccccccccccccccccccccccccccc" />
      <path
         style="fill:none;stroke:#475845;stroke-width:0.065;stroke-linecap:butt;stroke-linejoin:miter;stroke-miterlimit:4;stroke-dasharray:none;stroke-opacity:0.6980198"
         d="m 149.84394,260.17095 c 0,0 -0.0709,-2.10249 0.11811,-2.52772 0,0 0.14174,-1.18117 -0.0236,-1.84263 0,0 -0.14174,-1.37016 -0.0473,-1.65364 0,0 0.0473,-0.8977 0.0473,-1.65365 0,0 0.11812,-1.01581 -0.0473,-1.48828 0,0 -0.16536,-1.27567 -0.0236,-1.44104 0,0 0.16536,-0.94494 0.0709,-1.29929 0,0 -0.42522,-2.22061 0,-2.83482 0,0 0.16536,-1.41741 0.0709,-1.65365 0,0 0.16536,-1.53553 -0.0709,-2.10249 0,0 -0.23623,-2.17336 -0.0473,-2.50409 0,0 0.16537,-2.14974 0.0945,-2.45685 0.0709,-0.0945 -0.23624,-1.67727 -0.14174,-1.81901"
         id="path15645"
         inkscape:connector-curvature="0" />
    </g>
    <g
       id="g15717"
       style="filter:url(#filter19801)">
      <path
         sodipodi:nodetypes="cccccccccccccccccccccccccccccc"
         style="fill:#6d8261;fill-opacity:1;stroke:#475845;stroke-width:0.1;stroke-linecap:butt;stroke-linejoin:miter;stroke-miterlimit:4;stroke-dasharray:none;stroke-opacity:0.6980198"
         d="m 39.876488,267.7541 c -0.141741,-0.59059 0.165364,-1.6064 0.165364,-1.6064 0.47247,-0.25986 0.307108,-1.1103 0.307108,-1.1103 -0.307108,-0.35436 0.0106,-1.05349 0.0106,-1.05349 l -0.03624,-1.08754 c 0,0 0.579758,-1.27668 0.07247,-1.8441 0,0 -0.398587,-0.85111 -0.108708,-1.74952 0,0 0.543522,-0.66198 0.108704,-1.60768 0,0 -0.434818,-0.99296 -0.07247,-1.84408 0,0 0.579755,-1.56039 -3e-6,-1.98595 0,0 -0.434818,-0.89841 0,-1.65495 0,0 0.507288,-1.18212 0.07247,-1.89138 0,0 -0.507285,-1.04026 3e-6,-1.70224 0,0 0.471053,-0.80383 0,-1.65496 0,0 -0.362348,-0.94568 -0.07247,-1.79681 0,0 0.54352,-1.22939 0.07247,-1.70223 0,0 -0.398583,-0.99298 -0.181174,-1.79681 0,0 0.326113,-1.27668 -0.05696,-1.90902 -0.541476,-0.48788 -0.894507,0.11221 -0.894507,0.11221 -0.326113,0.52013 0,1.79681 0,1.79681 0.217409,0.80383 -0.181174,1.79681 -0.181174,1.79681 -0.47105,0.47284 0.07247,1.70223 0.07247,1.70223 0.289878,0.85113 -0.07247,1.79681 -0.07247,1.79681 -0.471053,0.85113 0,1.65496 0,1.65496 0.507288,0.66198 3e-6,1.70224 3e-6,1.70224 -0.434818,0.70926 0.07247,1.89138 0.07247,1.89138 0.434818,0.75654 0,1.65495 0,1.65495 -0.579758,0.42556 -3e-6,1.98595 -3e-6,1.98595 0.362348,0.85112 -0.07247,1.84408 -0.07247,1.84408 -0.434818,0.9457 0.108704,1.60768 0.108704,1.60768 0.289879,0.89841 -0.108708,1.74952 -0.108708,1.74952 -0.507288,0.56742 0.07247,1.8441 0.07247,1.8441 l -0.03624,1.08754 c 0,0 0.356691,0.48652 0.04959,0.98262 0,0 -0.283487,0.89769 0.118113,1.08668 0,0 0.283482,0.87407 0.07087,1.70089 0,0 0.212613,0.3071 0.519718,0 z"
         id="path15649"
         inkscape:connector-curvature="0" />
      <path
         inkscape:connector-curvature="0"
         id="path15651"
         d="m 39.663876,265.93509 c 0,0 -0.07087,-2.10249 0.118118,-2.52772 0,0 0.141741,-1.18117 -0.02362,-1.84263 0,0 -0.141745,-1.37016 -0.04725,-1.65364 0,0 0.04725,-0.8977 0.04725,-1.65365 0,0 0.118114,-1.01581 -0.04725,-1.48828 0,0 -0.165366,-1.27567 -0.02362,-1.44104 0,0 0.16536,-0.94494 0.07087,-1.29929 0,0 -0.425227,-2.22061 -4e-6,-2.83482 0,0 0.165365,-1.41741 0.07087,-1.65365 0,0 0.165365,-1.53553 -0.07087,-2.10249 0,0 -0.236235,-2.17336 -0.04725,-2.50409 0,0 0.165368,-2.14974 0.0945,-2.45685 0.07087,-0.0945 -0.236238,-1.67727 -0.141744,-1.81901"
         style="fill:none;stroke:#475845;stroke-width:0.065;stroke-linecap:butt;stroke-linejoin:miter;stroke-miterlimit:4;stroke-dasharray:none;stroke-opacity:0.6980198" />
      <path
         inkscape:connector-curvature="0"
         id="path15655"
         d="m 39.876488,267.7541 c -0.141741,-0.59059 0.165364,-1.6064 0.165364,-1.6064 0.47247,-0.25986 0.307108,-1.1103 0.307108,-1.1103 -0.307108,-0.35436 0.0106,-1.05349 0.0106,-1.05349 l -0.03624,-1.08754 c 0,0 0.579758,-1.27668 0.07247,-1.8441 0,0 -0.398587,-0.85111 -0.108708,-1.74952 0,0 0.543522,-0.66198 0.108704,-1.60768 0,0 -0.434818,-0.99296 -0.07247,-1.84408 0,0 0.579755,-1.56039 -3e-6,-1.98595 0,0 -0.434818,-0.89841 0,-1.65495 0,0 0.507288,-1.18212 0.07247,-1.89138 0,0 -0.507285,-1.04026 3e-6,-1.70224 0,0 0.471053,-0.80383 0,-1.65496 0,0 -0.362348,-0.94568 -0.07247,-1.79681 0,0 0.54352,-1.22939 0.07247,-1.70223 0,0 -0.398583,-0.99298 -0.181174,-1.79681 0,0 0.326113,-1.27668 -0.05696,-1.90902 -0.541476,-0.48788 -0.894507,0.11221 -0.894507,0.11221 -0.326113,0.52013 0,1.79681 0,1.79681 0.217409,0.80383 -0.181174,1.79681 -0.181174,1.79681 -0.47105,0.47284 0.07247,1.70223 0.07247,1.70223 0.289878,0.85113 -0.07247,1.79681 -0.07247,1.79681 -0.471053,0.85113 0,1.65496 0,1.65496 0.507288,0.66198 3e-6,1.70224 3e-6,1.70224 -0.434818,0.70926 0.07247,1.89138 0.07247,1.89138 0.434818,0.75654 0,1.65495 0,1.65495 -0.579758,0.42556 -3e-6,1.98595 -3e-6,1.98595 0.362348,0.85112 -0.07247,1.84408 -0.07247,1.84408 -0.434818,0.9457 0.108704,1.60768 0.108704,1.60768 0.289879,0.89841 -0.108708,1.74952 -0.108708,1.74952 -0.507288,0.56742 0.07247,1.8441 0.07247,1.8441 l -0.03624,1.08754 c 0,0 0.356691,0.48652 0.04959,0.98262 0,0 -0.283487,0.89769 0.118113,1.08668 0,0 0.283482,0.87407 0.07087,1.70089 0,0 0.212613,0.3071 0.519718,0 z"
         style="fill:#6d8261;fill-opacity:1;stroke:#475845;stroke-width:0.15;stroke-linecap:butt;stroke-linejoin:miter;stroke-miterlimit:4;stroke-dasharray:none;stroke-opacity:0.7772277"
         sodipodi:nodetypes="cccccccccccccccccccccccccccccc" />
      <path
         style="fill:none;stroke:#475845;stroke-width:0.065;stroke-linecap:butt;stroke-linejoin:miter;stroke-miterlimit:4;stroke-dasharray:none;stroke-opacity:0.6980198"
         d="m 39.663876,265.93509 c 0,0 -0.07087,-2.10249 0.118118,-2.52772 0,0 0.141741,-1.18117 -0.02362,-1.84263 0,0 -0.141745,-1.37016 -0.04725,-1.65364 0,0 0.04725,-0.8977 0.04725,-1.65365 0,0 0.118114,-1.01581 -0.04725,-1.48828 0,0 -0.165366,-1.27567 -0.02362,-1.44104 0,0 0.16536,-0.94494 0.07087,-1.29929 0,0 -0.425227,-2.22061 -4e-6,-2.83482 0,0 0.165365,-1.41741 0.07087,-1.65365 0,0 0.165365,-1.53553 -0.07087,-2.10249 0,0 -0.236235,-2.17336 -0.04725,-2.50409 0,0 0.165368,-2.14974 0.0945,-2.45685 0.07087,-0.0945 -0.236238,-1.67727 -0.141744,-1.81901"
         id="path15657"
         inkscape:connector-curvature="0" />
    </g>
    <g
       id="g15732"
       style="filter:url(#filter19805)">
      <path
         sodipodi:nodetypes="cccccccccccccccccccccccccccccc"
         style="fill:#6d8261;fill-opacity:1;stroke:#475845;stroke-width:0.15;stroke-linecap:butt;stroke-linejoin:miter;stroke-miterlimit:4;stroke-dasharray:none;stroke-opacity:0.86138612"
         d="m 153.45833,260.47805 c -0.14174,-0.59058 0.16537,-1.6064 0.16537,-1.6064 0.47247,-0.25986 0.30711,-1.1103 0.30711,-1.1103 -0.30711,-0.35436 0.0106,-1.05349 0.0106,-1.05349 l -0.0362,-1.08754 c 0,0 0.57975,-1.27668 0.0725,-1.8441 0,0 -0.39859,-0.85111 -0.10871,-1.74951 0,0 0.54352,-0.66198 0.1087,-1.60768 0,0 -0.43482,-0.99296 -0.0725,-1.84408 0,0 0.57976,-1.56039 0,-1.98595 0,0 -0.43482,-0.89841 0,-1.65495 0,0 0.50729,-1.18212 0.0725,-1.89138 0,0 -0.50729,-1.04026 0,-1.70224 0,0 0.47105,-0.80383 0,-1.65496 0,0 -0.36235,-0.94568 -0.0725,-1.79681 0,0 0.54352,-1.22939 0.0725,-1.70223 0,0 -0.39858,-0.99298 -0.18117,-1.79681 0,0 0.32611,-1.27668 -0.057,-1.90902 -0.54148,-0.48788 -0.89451,0.11221 -0.89451,0.11221 -0.32611,0.52013 0,1.79681 0,1.79681 0.21741,0.80383 -0.18117,1.79681 -0.18117,1.79681 -0.47105,0.47284 0.0725,1.70223 0.0725,1.70223 0.28987,0.85113 -0.0725,1.79681 -0.0725,1.79681 -0.47106,0.85113 0,1.65496 0,1.65496 0.50728,0.66198 0,1.70224 0,1.70224 -0.43482,0.70926 0.0725,1.89138 0.0725,1.89138 0.43482,0.75654 0,1.65495 0,1.65495 -0.57976,0.42556 0,1.98595 0,1.98595 0.36234,0.85112 -0.0725,1.84408 -0.0725,1.84408 -0.43482,0.9457 0.1087,1.60768 0.1087,1.60768 0.28988,0.89841 -0.10871,1.74951 -0.10871,1.74951 -0.50729,0.56742 0.0725,1.8441 0.0725,1.8441 l -0.0362,1.08754 c 0,0 0.35669,0.48652 0.0496,0.98262 0,0 -0.28348,0.89769 0.11812,1.08668 0,0 0.28348,0.87407 0.0709,1.70089 0,0 0.21261,0.3071 0.51971,0 z"
         id="path15661"
         inkscape:connector-curvature="0" />
      <path
         inkscape:connector-curvature="0"
         id="path15663"
         d="m 153.24572,258.65904 c 0,0 -0.0709,-2.10249 0.11812,-2.52772 0,0 0.14174,-1.18116 -0.0236,-1.84262 0,0 -0.14175,-1.37016 -0.0472,-1.65364 0,0 0.0472,-0.8977 0.0472,-1.65365 0,0 0.11811,-1.01581 -0.0472,-1.48828 0,0 -0.16537,-1.27567 -0.0236,-1.44104 0,0 0.16536,-0.94494 0.0709,-1.29929 0,0 -0.42523,-2.22061 0,-2.83482 0,0 0.16536,-1.41741 0.0709,-1.65365 0,0 0.16536,-1.53553 -0.0709,-2.10249 0,0 -0.23624,-2.17336 -0.0472,-2.50409 0,0 0.16536,-2.14974 0.0945,-2.45685 0.0709,-0.0945 -0.23624,-1.67727 -0.14175,-1.81901"
         style="fill:none;stroke:#475845;stroke-width:0.065;stroke-linecap:butt;stroke-linejoin:miter;stroke-miterlimit:4;stroke-dasharray:none;stroke-opacity:0.6980198" />
    </g>
    <g
       id="g15728"
       style="filter:url(#filter19809)">
      <g
         id="g15671"
         transform="translate(83.438244,16.630953)">
        <path
           sodipodi:nodetypes="cccccccccccccccccccccccccccccc"
           style="fill:#6d8261;fill-opacity:1;stroke:#51614c;stroke-width:0.1;stroke-linecap:butt;stroke-linejoin:miter;stroke-miterlimit:4;stroke-dasharray:none;stroke-opacity:1"
           d="m 64.444941,240.06734 c -0.141741,-0.59059 0.165364,-1.6064 0.165364,-1.6064 0.47247,-0.25986 0.307108,-1.1103 0.307108,-1.1103 -0.307108,-0.35436 0.0106,-1.05349 0.0106,-1.05349 l -0.03624,-1.08754 c 0,0 0.579758,-1.27668 0.07247,-1.8441 0,0 -0.398587,-0.85111 -0.108708,-1.74952 0,0 0.543522,-0.66198 0.108704,-1.60768 0,0 -0.434818,-0.99296 -0.07247,-1.84408 0,0 0.579755,-1.56039 -3e-6,-1.98595 0,0 -0.434818,-0.89841 0,-1.65495 0,0 0.507288,-1.18212 0.07247,-1.89138 0,0 -0.507285,-1.04026 3e-6,-1.70224 0,0 0.471053,-0.80383 0,-1.65496 0,0 -0.362348,-0.94568 -0.07247,-1.79681 0,0 0.54352,-1.22939 0.07247,-1.70223 0,0 -0.398583,-0.99298 -0.181174,-1.79681 0,0 0.326113,-1.27668 -0.05696,-1.90902 -0.541476,-0.48788 -0.894507,0.11221 -0.894507,0.11221 -0.326113,0.52013 0,1.79681 0,1.79681 0.217409,0.80383 -0.181174,1.79681 -0.181174,1.79681 -0.47105,0.47284 0.07247,1.70223 0.07247,1.70223 0.289878,0.85113 -0.07247,1.79681 -0.07247,1.79681 -0.471053,0.85113 0,1.65496 0,1.65496 0.507288,0.66198 3e-6,1.70224 3e-6,1.70224 -0.434818,0.70926 0.07247,1.89138 0.07247,1.89138 0.434818,0.75654 0,1.65495 0,1.65495 -0.579758,0.42556 -3e-6,1.98595 -3e-6,1.98595 0.362348,0.85112 -0.07247,1.84408 -0.07247,1.84408 -0.434818,0.9457 0.108704,1.60768 0.108704,1.60768 0.289879,0.89841 -0.108708,1.74952 -0.108708,1.74952 -0.507288,0.56742 0.07247,1.8441 0.07247,1.8441 l -0.03624,1.08754 c 0,0 0.356691,0.48652 0.04959,0.98262 0,0 -0.283487,0.89769 0.118113,1.08668 0,0 0.283482,0.87407 0.07087,1.70089 0,0 0.212613,0.3071 0.519718,0 z"
           id="path15667"
           inkscape:connector-curvature="0" />
        <path
           inkscape:connector-curvature="0"
           id="path15669"
           d="m 64.232329,238.24833 c 0,0 -0.07087,-2.10249 0.118118,-2.52772 0,0 0.141741,-1.18117 -0.02362,-1.84263 0,0 -0.141745,-1.37016 -0.04725,-1.65364 0,0 0.04725,-0.8977 0.04725,-1.65365 0,0 0.118114,-1.01581 -0.04725,-1.48828 0,0 -0.165366,-1.27567 -0.02362,-1.44104 0,0 0.16536,-0.94494 0.07087,-1.29929 0,0 -0.425227,-2.22061 -4e-6,-2.83482 0,0 0.165365,-1.41741 0.07087,-1.65365 0,0 0.165365,-1.53553 -0.07087,-2.10249 0,0 -0.236235,-2.17336 -0.04725,-2.50409 0,0 0.165368,-2.14974 0.0945,-2.45685 0.07087,-0.0945 -0.236238,-1.67727 -0.141744,-1.81901"
           style="fill:none;stroke:#51614c;stroke-width:0.065;stroke-linecap:butt;stroke-linejoin:miter;stroke-miterlimit:4;stroke-dasharray:none;stroke-opacity:0.3960396" />
      </g>
      <path
         sodipodi:nodetypes="cccccccccccccccccccccccccccccc"
         style="fill:#6d8261;fill-opacity:1;stroke:#475845;stroke-width:0.15;stroke-linecap:butt;stroke-linejoin:miter;stroke-miterlimit:4;stroke-dasharray:none;stroke-opacity:0.98514849"
         d="m 147.88318,256.69829 c -0.14174,-0.59059 0.16537,-1.6064 0.16537,-1.6064 0.47247,-0.25986 0.30711,-1.1103 0.30711,-1.1103 -0.30711,-0.35436 0.0106,-1.05349 0.0106,-1.05349 l -0.0362,-1.08754 c 0,0 0.57975,-1.27668 0.0725,-1.8441 0,0 -0.39859,-0.85111 -0.10871,-1.74952 0,0 0.54352,-0.66198 0.1087,-1.60768 0,0 -0.43482,-0.99296 -0.0725,-1.84408 0,0 0.57976,-1.56039 0,-1.98595 0,0 -0.43482,-0.89841 0,-1.65495 0,0 0.50729,-1.18212 0.0725,-1.89138 0,0 -0.50729,-1.04026 0,-1.70224 0,0 0.47106,-0.80383 0,-1.65496 0,0 -0.36235,-0.94568 -0.0725,-1.79681 0,0 0.54352,-1.22939 0.0725,-1.70223 0,0 -0.39858,-0.99298 -0.18117,-1.79681 0,0 0.32611,-1.27668 -0.057,-1.90902 -0.54148,-0.48788 -0.89451,0.11221 -0.89451,0.11221 -0.32611,0.52013 0,1.79681 0,1.79681 0.21741,0.80383 -0.18117,1.79681 -0.18117,1.79681 -0.47105,0.47284 0.0725,1.70223 0.0725,1.70223 0.28988,0.85113 -0.0725,1.79681 -0.0725,1.79681 -0.47106,0.85113 0,1.65496 0,1.65496 0.50729,0.66198 0,1.70224 0,1.70224 -0.43482,0.70926 0.0725,1.89138 0.0725,1.89138 0.43482,0.75654 0,1.65495 0,1.65495 -0.57976,0.42556 0,1.98595 0,1.98595 0.36235,0.85112 -0.0725,1.84408 -0.0725,1.84408 -0.43482,0.9457 0.1087,1.60768 0.1087,1.60768 0.28988,0.89841 -0.10871,1.74952 -0.10871,1.74952 -0.50728,0.56742 0.0725,1.8441 0.0725,1.8441 l -0.0362,1.08754 c 0,0 0.35669,0.48652 0.0496,0.98262 0,0 -0.28348,0.89769 0.11812,1.08668 0,0 0.28348,0.87407 0.0709,1.70089 0,0 0.21261,0.3071 0.51971,0 z"
         id="path15673"
         inkscape:connector-curvature="0" />
      <path
         inkscape:connector-curvature="0"
         id="path15675"
         d="m 147.67057,254.87928 c 0,0 -0.0709,-2.10249 0.11812,-2.52772 0,0 0.14174,-1.18117 -0.0236,-1.84263 0,0 -0.14174,-1.37016 -0.0473,-1.65364 0,0 0.0473,-0.8977 0.0473,-1.65365 0,0 0.11811,-1.01581 -0.0473,-1.48828 0,0 -0.16537,-1.27567 -0.0236,-1.44104 0,0 0.16536,-0.94494 0.0709,-1.29929 0,0 -0.42523,-2.22061 0,-2.83482 0,0 0.16536,-1.41741 0.0709,-1.65365 0,0 0.16536,-1.53553 -0.0709,-2.10249 0,0 -0.23624,-2.17336 -0.0473,-2.50409 0,0 0.16536,-2.14974 0.0945,-2.45685 0.0709,-0.0945 -0.23624,-1.67727 -0.14175,-1.81901"
         style="fill:none;stroke:#475845;stroke-width:0.065;stroke-linecap:butt;stroke-linejoin:miter;stroke-miterlimit:4;stroke-dasharray:none;stroke-opacity:0.6980198" />
    </g>
    <path
       style="fill:#5c6b81;fill-opacity:1;stroke:#000006;stroke-width:0.15;stroke-linecap:butt;stroke-linejoin:miter;stroke-miterlimit:4;stroke-dasharray:none;stroke-opacity:1;filter:url(#filter19813)"
       d="m 213.54835,276.81027 c -1.46998,-2.97061 -3.60814,-3.0767 -3.60814,-3.0767 -8.01808,1.06092 -9.42384,-2.50876 -9.42384,-2.50876 -5.10268,-7.50191 -26.45834,-9.30237 -26.45834,-9.30237 -2.26785,0.75019 -11.52827,-3.15079 -11.52827,-3.15079 -15.68601,-4.50114 -27.40327,-12.15309 -27.40327,-12.15309 -14.17411,4.20107 -20.41072,3.30084 -20.41072,3.30084 -7.37053,1.2003 -20.221722,-4.05103 -20.221722,-4.05103 -9.260417,9.4524 -17.575893,9.4524 -17.575893,9.4524 -8.504464,-0.15004 -20.788691,5.1013 -20.788691,5.1013 -2.645833,3.30083 -8.126488,4.3511 -8.126488,4.3511 -2.645833,0.90023 -7.181549,1.80046 -7.181549,1.80046 -23.434522,3.45087 -29.104165,6.75172 -29.104165,6.75172 0,0 -3.9664457,1.15087 -4.5009848,2.31789 l -1.0690781,0.84874 1.737252,0.31829 z"
       id="path15604"
       inkscape:connector-curvature="0"
       sodipodi:nodetypes="ccccccccccccccccc" />
    <path
       style="fill:#95615c;fill-opacity:1;stroke:#000000;stroke-width:0.15;stroke-linecap:butt;stroke-linejoin:miter;stroke-opacity:1;stroke-miterlimit:4;stroke-dasharray:none;filter:url(#filter19817)"
       d="m 91.305831,248.8533 c 0,0 3.923557,2.46054 4.322562,4.18956 0,0 0.665011,3.12555 0.199504,4.12306 0,0 0.133002,1.79553 0.465507,2.06153 0,0 0,1.52953 -0.399006,2.26104 0,0 -0.199503,2.19453 -0.133002,2.79304 l -0.66501,1.86202 4.322563,0.13301 -2.394034,-0.46551 0.199502,-1.52952 c 0,0 0.399006,-1.33002 0.731511,-1.66253 0,0 1.197018,-2.46053 1.130517,-2.79304 0,0 1.130515,-2.32753 1.729025,-2.26103 0,0 3.85706,-2.12803 5.98509,-2.12803 0,0 4.85457,0.53201 4.85457,1.19702 0,0 1.86202,2.72654 1.72902,3.19204 v 2.52704 c 0,0.46551 2.52704,1.13052 2.52704,1.13052 l 0.73151,-1.33002 -1.92853,-0.73151 0.39901,-0.59851 c 0,0 -0.33251,-0.93102 -0.1995,-1.33002 0,0 -0.46551,-1.66253 0.1995,-1.72903 0,0 2.19453,-1.66252 2.59354,-2.12803 0,0 1.86202,-2.19453 2.32753,-2.39403 0,0 2.99254,-1.92853 3.59105,-1.86203 0,0 1.79553,-0.59851 3.39155,-1.99503 0,0 2.52704,-0.99751 3.79056,-0.59851 0,0 3.92355,0.26601 4.45556,1.19702 0,0 3.79056,1.26352 5.12058,1.19702 0,0 0.93101,-0.46551 1.33002,-0.39901 l 0.79801,0.0665 c 0,0 -4.38907,-2.12803 -4.72157,-2.92604 0,0 -1.79553,-1.59602 -2.46054,-1.72903 0,0 -0.93101,-0.0665 -1.19701,0.33251 0,0 -3.85706,1.52952 -6.3841,1.72902 0,0 -8.71162,1.79553 -11.43816,1.46303 0,0 -0.99752,0.3325 -2.19454,-0.0665 0,0 -1.19701,0.99751 -8.84463,-0.73152 0,0 -6.916096,-1.33002 -10.440647,-3.25854 z"
       id="path15792"
       inkscape:connector-curvature="0"
       sodipodi:nodetypes="ccccccccccccccccscccccccccccccccccccccccc" />
    <path
       style="fill:#565b6d;stroke:#000000;stroke-width:0.15;stroke-linecap:butt;stroke-linejoin:miter;stroke-opacity:1;fill-opacity:1;stroke-miterlimit:4;stroke-dasharray:none;filter:url(#filter19821)"
       d="m 63.209243,276.82115 c 0,0 7.61718,-2.80633 10.022607,-5.34539 0,0 2.271792,-2.67269 5.746295,-3.20723 0,0 5.345391,-1.60362 6.1472,-3.20723 0,0 10.423511,1.06907 13.898015,-0.40091 0,0 4.00904,-4.14268 6.28083,-5.47902 0,0 3.60814,-0.66818 10.69079,1.46998 0.4009,-0.26727 1.60361,3.4745 17.50615,-2.53906 0,0 10.15624,-2.80633 10.69078,-1.87089 0,0 3.74177,1.06908 6.01356,1.06908 l 3.87541,0.26727 2.13816,12.96257 -2.6727,6.28084 z"
       id="path15679"
       inkscape:connector-curvature="0" />
    <path
       style="fill:#4f6277;fill-opacity:1;stroke:#000000;stroke-width:0.15000001;stroke-linecap:butt;stroke-linejoin:miter;stroke-miterlimit:4;stroke-dasharray:none;stroke-opacity:1;filter:url(#filter19825)"
       d="m 130.71446,276.71342 c 0,0 2.40543,-1.23021 3.87541,-1.33273 0.80181,-0.10251 1.20272,0 4.54358,-1.43525 0,0 2.2718,-3.79317 4.40995,-4.10072 0,0 2.27179,-1.12771 4.14268,-3.99821 0,0 1.46998,0.41007 3.87541,-2.46043 0,0 0.66817,-2.46044 2.27179,-2.46044 0,0 4.81085,-4.10072 7.61718,-4.51079 0,0 2.67269,-1.64029 3.74177,-2.66547 0,0 6.41447,3.17806 8.28536,2.97303 0,0 7.48355,0.41007 8.55262,0 0,0 6.1472,-1.43526 7.34992,-1.6403 0,0 2.27179,-0.41007 4.27631,-1.43525 0,0 3.0736,1.74281 6.28083,1.33274 0,0 3.60814,0 3.60814,2.25539 0,0 2.80633,3.28058 6.41447,3.17807 0,0 5.67553,4.149 5.29756,7.04865 0,0 -0.75596,7.39411 1.5119,7.82905 0,0 0.94494,0.8699 1.88988,1.30484 z"
       id="path15606"
       inkscape:connector-curvature="0" />
    <g
       id="g15750"
       transform="matrix(0.22000081,0,0,0.22000081,40.644064,218.9654)"
       style="fill:#524032;fill-opacity:1;stroke-width:4.54543781;filter:url(#filter19829)">
      <ellipse
         ry="0.8699308"
         rx="0.75237256"
         cy="232.88374"
         cx="53.089291"
         id="path15740"
         style="opacity:1;fill:#524032;fill-opacity:1;stroke:none;stroke-width:0.68181562;stroke-miterlimit:4;stroke-dasharray:none;stroke-opacity:0.77722772" />
      <ellipse
         ry="0.77588421"
         rx="0.75237256"
         cy="235.94026"
         cx="52.948219"
         id="path15742"
         style="opacity:1;fill:#524032;fill-opacity:1;stroke:none;stroke-width:0.68181562;stroke-miterlimit:4;stroke-dasharray:none;stroke-opacity:0.77722772" />
      <ellipse
         ry="0.82290751"
         rx="0.79939586"
         cy="233.63614"
         cx="50.691101"
         id="path15744"
         style="opacity:1;fill:#524032;fill-opacity:1;stroke:none;stroke-width:0.68181562;stroke-miterlimit:4;stroke-dasharray:none;stroke-opacity:0.77722772" />
      <ellipse
         ry="1.7955261"
         rx="1.5295223"
         cy="234.42259"
         cx="51.804253"
         id="path15738"
         style="opacity:1;fill:#524032;fill-opacity:1;stroke:none;stroke-width:0.68181562;stroke-miterlimit:4;stroke-dasharray:none;stroke-opacity:0.77722772" />
    </g>
    <g
       style="fill:#394d32;fill-opacity:1;stroke-width:4.54543781;filter:url(#filter19833)"
       transform="matrix(0.03166754,-0.21770972,0.21770972,0.03166754,34.703235,266.16693)"
       id="g15760">
      <ellipse
         style="opacity:1;fill:#394d32;fill-opacity:1;stroke:none;stroke-width:0.68181562;stroke-miterlimit:4;stroke-dasharray:none;stroke-opacity:0.77722772"
         id="ellipse15752"
         cx="53.089291"
         cy="232.88374"
         rx="0.75237256"
         ry="0.8699308" />
      <ellipse
         style="opacity:1;fill:#394d32;fill-opacity:1;stroke:none;stroke-width:0.68181562;stroke-miterlimit:4;stroke-dasharray:none;stroke-opacity:0.77722772"
         id="ellipse15754"
         cx="52.948219"
         cy="235.94026"
         rx="0.75237256"
         ry="0.77588421" />
      <ellipse
         style="opacity:1;fill:#394d32;fill-opacity:1;stroke:none;stroke-width:0.68181562;stroke-miterlimit:4;stroke-dasharray:none;stroke-opacity:0.77722772"
         id="ellipse15756"
         cx="50.691101"
         cy="233.63614"
         rx="0.79939586"
         ry="0.82290751" />
      <ellipse
         style="opacity:1;fill:#394d32;fill-opacity:1;stroke:none;stroke-width:0.68181562;stroke-miterlimit:4;stroke-dasharray:none;stroke-opacity:0.77722772"
         id="ellipse15758"
         cx="51.804253"
         cy="234.42259"
         rx="1.5295223"
         ry="1.7955261" />
    </g>
    <g
       id="g15770"
       transform="matrix(0.20534232,0.07896131,-0.07896131,0.20534232,124.43641,221.75352)"
       style="fill:#354d5c;fill-opacity:1;stroke-width:4.54543781;filter:url(#filter19837)">
      <ellipse
         ry="0.8699308"
         rx="0.75237256"
         cy="232.88374"
         cx="53.089291"
         id="ellipse15762"
         style="opacity:1;fill:#354d5c;fill-opacity:1;stroke:none;stroke-width:0.68181562;stroke-miterlimit:4;stroke-dasharray:none;stroke-opacity:0.77722772" />
      <ellipse
         ry="0.77588421"
         rx="0.75237256"
         cy="235.94026"
         cx="52.948219"
         id="ellipse15764"
         style="opacity:1;fill:#354d5c;fill-opacity:1;stroke:none;stroke-width:0.68181562;stroke-miterlimit:4;stroke-dasharray:none;stroke-opacity:0.77722772" />
      <ellipse
         ry="0.82290751"
         rx="0.79939586"
         cy="233.63614"
         cx="50.691101"
         id="ellipse15766"
         style="opacity:1;fill:#354d5c;fill-opacity:1;stroke:none;stroke-width:0.68181562;stroke-miterlimit:4;stroke-dasharray:none;stroke-opacity:0.77722772" />
      <ellipse
         ry="1.7955261"
         rx="1.5295223"
         cy="234.42259"
         cx="51.804253"
         id="ellipse15768"
         style="opacity:1;fill:#354d5c;fill-opacity:1;stroke:none;stroke-width:0.68181562;stroke-miterlimit:4;stroke-dasharray:none;stroke-opacity:0.77722772" />
    </g>
    <g
       id="g15780"
       transform="matrix(0.03166754,-0.21770972,0.21770972,0.03166754,146.05438,262.96935)"
       style="fill:#394d32;fill-opacity:1;stroke-width:4.54543781;filter:url(#filter19841)">
      <ellipse
         ry="0.8699308"
         rx="0.75237256"
         cy="232.88374"
         cx="53.089291"
         id="ellipse15772"
         style="opacity:1;fill:#394d32;fill-opacity:1;stroke:none;stroke-width:0.68181562;stroke-miterlimit:4;stroke-dasharray:none;stroke-opacity:0.77722772" />
      <ellipse
         ry="0.77588421"
         rx="0.75237256"
         cy="235.94026"
         cx="52.948219"
         id="ellipse15774"
         style="opacity:1;fill:#394d32;fill-opacity:1;stroke:none;stroke-width:0.68181562;stroke-miterlimit:4;stroke-dasharray:none;stroke-opacity:0.77722772" />
      <ellipse
         ry="0.82290751"
         rx="0.79939586"
         cy="233.63614"
         cx="50.691101"
         id="ellipse15776"
         style="opacity:1;fill:#394d32;fill-opacity:1;stroke:none;stroke-width:0.68181562;stroke-miterlimit:4;stroke-dasharray:none;stroke-opacity:0.77722772" />
      <ellipse
         ry="1.7955261"
         rx="1.5295223"
         cy="234.42259"
         cx="51.804253"
         id="ellipse15778"
         style="opacity:1;fill:#394d32;fill-opacity:1;stroke:none;stroke-width:0.68181562;stroke-miterlimit:4;stroke-dasharray:none;stroke-opacity:0.77722772" />
    </g>
    <g
       style="fill:#354d5c;fill-opacity:1;stroke-width:4.54543781;filter:url(#filter19845)"
       transform="matrix(0.20534232,0.07896131,-0.07896131,0.20534232,153.59085,201.81565)"
       id="g15790">
      <ellipse
         style="opacity:1;fill:#354d5c;fill-opacity:1;stroke:none;stroke-width:0.68181562;stroke-miterlimit:4;stroke-dasharray:none;stroke-opacity:0.77722772"
         id="ellipse15782"
         cx="53.089291"
         cy="232.88374"
         rx="0.75237256"
         ry="0.8699308" />
      <ellipse
         style="opacity:1;fill:#354d5c;fill-opacity:1;stroke:none;stroke-width:0.68181562;stroke-miterlimit:4;stroke-dasharray:none;stroke-opacity:0.77722772"
         id="ellipse15784"
         cx="52.948219"
         cy="235.94026"
         rx="0.75237256"
         ry="0.77588421" />
      <ellipse
         style="opacity:1;fill:#354d5c;fill-opacity:1;stroke:none;stroke-width:0.68181562;stroke-miterlimit:4;stroke-dasharray:none;stroke-opacity:0.77722772"
         id="ellipse15786"
         cx="50.691101"
         cy="233.63614"
         rx="0.79939586"
         ry="0.82290751" />
      <ellipse
         style="opacity:1;fill:#354d5c;fill-opacity:1;stroke:none;stroke-width:0.68181562;stroke-miterlimit:4;stroke-dasharray:none;stroke-opacity:0.77722772"
         id="ellipse15788"
         cx="51.804253"
         cy="234.42259"
         rx="1.5295223"
         ry="1.7955261" />
    </g>
    <path
       style="fill:#8d5850;stroke:#000000;stroke-width:0.15;stroke-linecap:butt;stroke-linejoin:miter;stroke-opacity:1;fill-opacity:1;stroke-miterlimit:4;stroke-dasharray:none;filter:url(#filter19849)"
       d="m 163.02973,255.43142 c 0,0 0.28214,2.6333 0.94047,2.58628 0,0 2.96247,0.094 3.80889,0.37619 0,0 1.8339,0.28214 2.58628,1.45772 0,0 1.31665,1.69284 0.75237,2.77437 0,0 0.6113,-1.08153 3.10354,-1.78688 0,0 3.38567,-1.4107 6.34814,-0.23512 0,0 2.16307,3.00949 2.022,4.56126 0,0 0.23512,3.33865 0.75237,3.66782 0,0 -0.18809,-0.94047 0.1881,-1.17559 0,0 0.094,-1.69283 -0.1881,-2.35116 0,0 -1.03451,-3.15056 -0.70535,-3.19758 0,0 -0.4232,-1.97498 1.26963,-2.02201 0,0 1.69284,0.32917 4.8434,-1.59879 0,0 1.31665,0.65833 2.49224,0.56428 0,0 2.35116,-0.56428 3.38567,-1.64581 0,0 1.03452,-0.56428 1.59879,-1.17558 0,0 0.14107,-0.94047 0.47024,-1.12856 l 0.047,-0.32917 -3.05651,-1.08153 c 0,0 -1.55177,0.56428 -1.83391,0.84642 0,0 -0.70533,-0.1881 -1.36366,-0.0941 0,0 -1.45772,0.84647 -4.27912,1.08159 0,0 -2.58628,0.84642 -4.32614,0.98749 0,0 -1.78688,0.75237 -8.84038,0.094 0,0 -1.69283,-0.14103 -6.16005,-2.25708 0,0 -1.88093,-1.26962 -1.92795,-1.03451 z"
       id="path15794"
       inkscape:connector-curvature="0" />
    <path
       style="fill:none;stroke:#444c5b;stroke-width:0.065;stroke-linecap:butt;stroke-linejoin:miter;stroke-opacity:1;stroke-miterlimit:4;stroke-dasharray:none;filter:url(#filter19853)"
       d="m 60.51588,271.72963 c 0,0 12.502184,-4.38906 20.216297,-8.37912"
       id="path15796"
       inkscape:connector-curvature="0" />
    <path
       style="fill:none;stroke:#444c5b;stroke-width:0.065;stroke-linecap:butt;stroke-linejoin:miter;stroke-opacity:1;stroke-miterlimit:4;stroke-dasharray:none;filter:url(#filter19857)"
       d="m 91.106328,271.06462 c 0,0 19.285282,-5.85208 36.043522,-2.92604"
       id="path15798"
       inkscape:connector-curvature="0" />
    <path
       style="fill:none;stroke:#40576b;stroke-width:0.065;stroke-linecap:butt;stroke-linejoin:miter;stroke-opacity:1;stroke-miterlimit:4;stroke-dasharray:none;filter:url(#filter19861)"
       d="m 150.29219,273.59166 c 0,0 8.37912,-9.57614 14.23121,-11.17216"
       id="path15800"
       inkscape:connector-curvature="0" />
    <path
       style="fill:none;stroke:#40576b;stroke-width:0.065;stroke-linecap:butt;stroke-linejoin:miter;stroke-opacity:1;stroke-miterlimit:4;stroke-dasharray:none;filter:url(#filter19865)"
       d="m 212.8031,275.05468 c 0,0 -1.72903,-11.03916 -13.30019,-13.30019"
       id="path15802"
       inkscape:connector-curvature="0" />
    <path
       style="fill:none;stroke:#40576b;stroke-width:0.065;stroke-linecap:butt;stroke-linejoin:miter;stroke-opacity:1;stroke-miterlimit:4;stroke-dasharray:none;filter:url(#filter19869)"
       d="m 171.7055,272.92665 c 0,0 5.05407,2.39404 12.36918,2.12803"
       id="path15804"
       inkscape:connector-curvature="0" />
    <path
       style="fill:none;stroke:#444c5b;stroke-width:0.065;stroke-linecap:butt;stroke-linejoin:miter;stroke-opacity:1;stroke-miterlimit:4;stroke-dasharray:none;filter:url(#filter19873)"
       d="m 137.258,271.46363 c 0,0 7.44811,-5.32008 9.04413,-10.50715"
       id="path15806"
       inkscape:connector-curvature="0" />
  </g>
</svg>
