<?xml version="1.0" encoding="UTF-8" standalone="no"?>
<!-- Created with Inkscape (http://www.inkscape.org/) -->

<svg
   xmlns:dc="http://purl.org/dc/elements/1.1/"
   xmlns:cc="http://creativecommons.org/ns#"
   xmlns:rdf="http://www.w3.org/1999/02/22-rdf-syntax-ns#"
   xmlns:svg="http://www.w3.org/2000/svg"
   xmlns="http://www.w3.org/2000/svg"
   xmlns:sodipodi="http://sodipodi.sourceforge.net/DTD/sodipodi-0.dtd"
   xmlns:inkscape="http://www.inkscape.org/namespaces/inkscape"
   width="297mm"
   height="210mm"
   viewBox="0 0 297 210"
   version="1.1"
   id="svg2089"
   inkscape:export-filename="/home/josh/android/fishtank/assets_local/grass4.png"
   inkscape:export-xdpi="14.287415"
   inkscape:export-ydpi="14.287415"
   inkscape:version="0.92.2 5c3e80d, 2017-08-06"
   sodipodi:docname="grass4.svg">
  <defs
     id="defs2083" />
  <sodipodi:namedview
     id="base"
     pagecolor="#ffffff"
     bordercolor="#666666"
     borderopacity="1.0"
     inkscape:pageopacity="0.0"
     inkscape:pageshadow="2"
     inkscape:zoom="1.4"
     inkscape:cx="472.54923"
     inkscape:cy="220.86947"
     inkscape:document-units="mm"
     inkscape:current-layer="layer1"
     showgrid="false"
     inkscape:snap-nodes="false"
     inkscape:window-width="1918"
     inkscape:window-height="1042"
     inkscape:window-x="0"
     inkscape:window-y="18"
     inkscape:window-maximized="0" />
  <metadata
     id="metadata2086">
    <rdf:RDF>
      <cc:Work
         rdf:about="">
        <dc:format>image/svg+xml</dc:format>
        <dc:type
           rdf:resource="http://purl.org/dc/dcmitype/StillImage" />
        <dc:title></dc:title>
      </cc:Work>
    </rdf:RDF>
  </metadata>
  <g
     inkscape:label="Layer 1"
     inkscape:groupmode="layer"
     id="layer1"
     transform="translate(0,-87)">
    <g
       id="g2852"
       transform="matrix(0.84234171,0,0,0.84409819,-67.712528,21.300558)"
       style="stroke-width:1.18593085">
      <path
         style="fill:#657850;fill-opacity:1;stroke:#4b4f26;stroke-width:0.94874477;stroke-linecap:butt;stroke-linejoin:miter;stroke-miterlimit:4;stroke-dasharray:none;stroke-opacity:1"
         d="m 239.59252,246.82031 c 0,0 15.49165,-55.94537 20.16615,-64.6209 l -4.45165,-0.16237 c -10.04104,34.06803 -19.51123,63.98233 -19.51123,63.98233 z"
         id="path2770"
         inkscape:connector-curvature="0"
         sodipodi:nodetypes="cccc" />
      <path
         style="fill:#0981c7;fill-opacity:1;stroke:#00548a;stroke-width:0.94874477;stroke-linecap:butt;stroke-linejoin:miter;stroke-miterlimit:4;stroke-dasharray:none;stroke-opacity:1"
         d="m 256.82873,184.92652 c 0,0 -19.0422,9.58509 -8.24294,15.66469 0,0 20.1137,14.45491 8.24294,-15.66469 z"
         id="path2772"
         inkscape:connector-curvature="0" />
      <path
         style="fill:#0981c7;fill-opacity:1;stroke:#00548a;stroke-width:0.94874477;stroke-linecap:butt;stroke-linejoin:miter;stroke-miterlimit:4;stroke-dasharray:none;stroke-opacity:1"
         d="m 258.80208,182.3817 c 0,0 -7.03069,20.12581 4.95953,16.9921 0,0 24.50824,-3.58483 -4.95953,-16.9921 z"
         id="path2774"
         inkscape:connector-curvature="0" />
      <path
         inkscape:connector-curvature="0"
         id="path2776"
         d="m 259.00636,184.14596 c 0,0 19.57596,8.44161 17.30129,-3.74082 0,0 -1.83604,-24.70089 -17.30129,3.74082 z"
         style="fill:#0981c7;fill-opacity:1;stroke:#00548a;stroke-width:0.94874477;stroke-linecap:butt;stroke-linejoin:miter;stroke-miterlimit:4;stroke-dasharray:none;stroke-opacity:1" />
      <path
         style="fill:#0981c7;fill-opacity:1;stroke:#00548a;stroke-width:0.94874477;stroke-linecap:butt;stroke-linejoin:miter;stroke-miterlimit:4;stroke-dasharray:none;stroke-opacity:1"
         d="m 254.97182,183.08634 c 0,0 -15.92881,-9.09128 -15.57107,4.97902 0,0 3.17418,28.64925 15.57107,-4.97902 z"
         id="path2778"
         inkscape:connector-curvature="0" />
      <path
         style="fill:#0981c7;fill-opacity:1;stroke:#00548a;stroke-width:0.94874477;stroke-linecap:butt;stroke-linejoin:miter;stroke-miterlimit:4;stroke-dasharray:none;stroke-opacity:1"
         d="m 256.55632,187.12044 c 0,0 8.52845,-30.32276 -5.78064,-24.00883 0,0 -21.65817,7.66778 5.78064,24.00883 z"
         id="path2780"
         inkscape:connector-curvature="0" />
      <path
         inkscape:connector-curvature="0"
         id="path2782"
         d="m 256.37593,186.15439 c 0,0 18.28164,-1.46962 10.05487,-12.88984 0,0 -18.77109,-21.87467 -10.05487,12.88984 z"
         style="fill:#0981c7;fill-opacity:1;stroke:#00548a;stroke-width:0.94874477;stroke-linecap:butt;stroke-linejoin:miter;stroke-miterlimit:4;stroke-dasharray:none;stroke-opacity:1" />
      <ellipse
         style="fill:#b26f25;fill-opacity:1;stroke:#944e00;stroke-width:0.94874477;stroke-miterlimit:4;stroke-dasharray:none;stroke-opacity:1"
         id="ellipse2784"
         cx="294.37601"
         cy="116.56201"
         rx="6.4144688"
         ry="6.2808337"
         transform="rotate(14.34717)" />
    </g>
    <path
       style="fill:#657850;fill-opacity:1;stroke:#4b4f26;stroke-width:0.80000001;stroke-linecap:butt;stroke-linejoin:miter;stroke-miterlimit:4;stroke-dasharray:none;stroke-opacity:1"
       d="m 66.122606,252.01388 c 0,0 -7.498379,-57.56431 -6.568053,-67.37503 l -4.163996,1.58263 c 4.006651,35.29022 6.922884,66.53195 6.922884,66.53195 z"
       id="path2018"
       inkscape:connector-curvature="0"
       sodipodi:nodetypes="cccc" />
    <path
       style="fill:#d0acc7;fill-opacity:1;stroke:#947a90;stroke-width:0.80000001;stroke-linecap:butt;stroke-linejoin:miter;stroke-miterlimit:4;stroke-dasharray:none;stroke-opacity:1"
       d="m 57.916683,188.29112 c 0,0 -13.811785,16.23927 -1.49796,17.63759 0,0 24.153135,5.48919 1.49796,-17.63759 z"
       id="path2034"
       inkscape:connector-curvature="0" />
    <path
       style="fill:#d0acc7;fill-opacity:1;stroke:#947a90;stroke-width:0.80000001;stroke-linecap:butt;stroke-linejoin:miter;stroke-miterlimit:4;stroke-dasharray:none;stroke-opacity:1"
       d="m 58.744289,185.179 c 0,0 1.354634,21.27542 11.180523,13.72312 0,0 21.181836,-12.83881 -11.180523,-13.72312 z"
       id="path2022"
       inkscape:connector-curvature="0" />
    <path
       inkscape:connector-curvature="0"
       id="path2024"
       d="m 59.618961,186.72473 c 0,0 21.31792,0.15904 14.482168,-10.17818 0,0 -11.302807,-22.03977 -14.482168,10.17818 z"
       style="fill:#d0acc7;fill-opacity:1;stroke:#947a90;stroke-width:0.80000001;stroke-linecap:butt;stroke-linejoin:miter;stroke-miterlimit:4;stroke-dasharray:none;stroke-opacity:1" />
    <path
       style="fill:#d0acc7;fill-opacity:1;stroke:#947a90;stroke-width:0.80000001;stroke-linecap:butt;stroke-linejoin:miter;stroke-miterlimit:4;stroke-dasharray:none;stroke-opacity:1"
       d="m 55.490073,187.31851 c 0,0 -18.210997,-2.17667 -12.406496,10.64554 0,0 14.071843,25.15628 12.406496,-10.64554 z"
       id="path2026"
       inkscape:connector-curvature="0" />
    <path
       style="fill:#d0acc7;fill-opacity:1;stroke:#947a90;stroke-width:0.80000001;stroke-linecap:butt;stroke-linejoin:miter;stroke-miterlimit:4;stroke-dasharray:none;stroke-opacity:1"
       d="m 58.519423,190.41813 c 0,0 -3.942687,-31.25155 -14.667234,-19.86735 0,0 -16.967646,15.49097 14.667234,19.86735 z"
       id="path2028"
       inkscape:connector-curvature="0" />
    <path
       inkscape:connector-curvature="0"
       id="path2030"
       d="m 57.977344,189.59841 c 0,0 16.269012,-8.46744 4.246824,-15.78648 0,0 -25.803473,-12.84662 -4.246824,15.78648 z"
       style="fill:#d0acc7;fill-opacity:1;stroke:#947a90;stroke-width:0.80000001;stroke-linecap:butt;stroke-linejoin:miter;stroke-miterlimit:4;stroke-dasharray:none;stroke-opacity:1" />
    <ellipse
       style="fill:#b28f25;fill-opacity:1;stroke:#8a6600;stroke-width:0.80000001;stroke-miterlimit:4;stroke-dasharray:none;stroke-opacity:1"
       id="path2032"
       cx="29.004833"
       cy="195.85457"
       rx="6.4144688"
       ry="6.2808337"
       transform="rotate(-8.5522124)" />
    <path
       style="fill:#52543b;fill-opacity:1;stroke:none;stroke-width:0.26458332px;stroke-linecap:butt;stroke-linejoin:miter;stroke-opacity:1"
       d="m 92.608891,201.31751 1.870884,-7.48355 4.276307,5.21176 z"
       id="path2644"
       inkscape:connector-curvature="0" />
    <path
       inkscape:connector-curvature="0"
       id="path2670"
       d="m 105.83806,214.1687 1.87088,-7.48355 4.27631,5.21176 z"
       style="fill:#52543b;fill-opacity:1;stroke:none;stroke-width:0.26458332px;stroke-linecap:butt;stroke-linejoin:miter;stroke-opacity:1" />
    <path
       style="fill:#52543b;fill-opacity:1;stroke:none;stroke-width:0.26458332px;stroke-linecap:butt;stroke-linejoin:miter;stroke-opacity:1"
       d="m 82.17284,213.0079 6.590049,-4.00936 -0.620189,6.71302 z"
       id="path2672"
       inkscape:connector-curvature="0" />
    <path
       inkscape:connector-curvature="0"
       id="path2658"
       d="m 130.19697,214.11278 -5.14525,-5.74719 6.7134,-0.61598 z"
       style="fill:#52543b;fill-opacity:1;stroke:none;stroke-width:0.26458332px;stroke-linecap:butt;stroke-linejoin:miter;stroke-opacity:1" />
    <path
       style="fill:#52543b;fill-opacity:1;stroke:none;stroke-width:0.26458332px;stroke-linecap:butt;stroke-linejoin:miter;stroke-opacity:1"
       d="m 93.945239,247.82241 1.870884,-7.48355 4.276307,5.21176 z"
       id="path2660"
       inkscape:connector-curvature="0" />
    <path
       inkscape:connector-curvature="0"
       id="path2662"
       d="m 211.22923,219.76681 7.52506,-1.69626 -2.7304,6.16394 z"
       style="fill:#52543b;fill-opacity:1;stroke:none;stroke-width:0.26458332px;stroke-linecap:butt;stroke-linejoin:miter;stroke-opacity:1" />
    <path
       style="fill:#52543b;fill-opacity:1;stroke:none;stroke-width:0.26458332px;stroke-linecap:butt;stroke-linejoin:miter;stroke-opacity:1"
       d="m 39.422255,219.22457 1.870884,-7.48355 4.276307,5.21176 z"
       id="path2664"
       inkscape:connector-curvature="0" />
    <path
       inkscape:connector-curvature="0"
       id="path2666"
       d="m 227.59405,269.59565 -6.66534,3.88291 0.74815,-6.69996 z"
       style="fill:#52543b;fill-opacity:1;stroke:none;stroke-width:0.26458332px;stroke-linecap:butt;stroke-linejoin:miter;stroke-opacity:1" />
    <path
       style="fill:#52543b;fill-opacity:1;stroke:none;stroke-width:0.26458332px;stroke-linecap:butt;stroke-linejoin:miter;stroke-opacity:1"
       d="m 216.19339,258.47882 -0.53663,-7.69518 5.67914,3.63272 z"
       id="path2668"
       inkscape:connector-curvature="0" />
    <path
       style="fill:#52543b;fill-opacity:1;stroke:none;stroke-width:0.26458332px;stroke-linecap:butt;stroke-linejoin:miter;stroke-opacity:1"
       d="m 193.45663,207.18046 -6.69936,3.82393 0.80725,-6.6931 z"
       id="path2656"
       inkscape:connector-curvature="0" />
    <path
       inkscape:connector-curvature="0"
       id="path2646"
       d="m 156.2386,221.50828 7.60827,-1.27197 -3.07146,6.00128 z"
       style="fill:#52543b;fill-opacity:1;stroke:none;stroke-width:0.26458332px;stroke-linecap:butt;stroke-linejoin:miter;stroke-opacity:1" />
    <path
       style="fill:#52543b;fill-opacity:1;stroke:none;stroke-width:0.26458332px;stroke-linecap:butt;stroke-linejoin:miter;stroke-opacity:1"
       d="m 124.35318,254.06986 2.50266,7.29661 -6.42379,-2.04554 z"
       id="path2648"
       inkscape:connector-curvature="0" />
    <path
       inkscape:connector-curvature="0"
       id="path2650"
       d="m 86.650954,224.57461 2.430273,7.32103 -6.403219,-2.10905 z"
       style="fill:#52543b;fill-opacity:1;stroke:none;stroke-width:0.26458332px;stroke-linecap:butt;stroke-linejoin:miter;stroke-opacity:1" />
    <path
       style="fill:#52543b;fill-opacity:1;stroke:none;stroke-width:0.26458332px;stroke-linecap:butt;stroke-linejoin:miter;stroke-opacity:1"
       d="m 44.27414,262.28624 -3.363373,-6.942 6.623417,1.25683 z"
       id="path2652"
       inkscape:connector-curvature="0" />
    <path
       inkscape:connector-curvature="0"
       id="path2654"
       d="m 141.80352,234.09039 -4.65185,6.15337 -1.89405,-6.47008 z"
       style="fill:#52543b;fill-opacity:1;stroke:none;stroke-width:0.26458332px;stroke-linecap:butt;stroke-linejoin:miter;stroke-opacity:1" />
    <path
       style="fill:#505000;fill-opacity:1;stroke:#323300;stroke-width:0.86500001;stroke-linecap:butt;stroke-linejoin:miter;stroke-miterlimit:4;stroke-dasharray:none;stroke-opacity:1"
       d="m 88.414001,266.44091 c 0,0 23.812499,-43.46726 72.193449,-25.3244 48.38095,18.14286 74.83929,38.17559 87.3125,31.37202 12.47321,-6.80357 16.63095,-38.93155 1.88988,-37.79762 0,0 6.4256,5.66965 3.40179,17.00893 0,0 -1.88988,14.3631 -13.22917,16.63096 0,0 -65.76785,-29.86012 -76.35119,-33.26191 0,0 -21.16666,-9.07143 -40.44345,-4.91369 0,0 -34.773807,13.60714 -34.773807,24.56845 0,0 -5.669647,13.22916 -2e-6,11.71726 z"
       id="path2634"
       inkscape:connector-curvature="0" />
    <path
       style="fill:#505000;fill-opacity:1;stroke:#323300;stroke-width:0.86500001;stroke-linecap:butt;stroke-linejoin:miter;stroke-miterlimit:4;stroke-dasharray:none;stroke-opacity:1"
       d="m 194.03541,270.2744 c 0,0 30.61607,-6.4256 24.19048,-30.61607 0,0 -9.82738,-33.63988 -44.60119,-37.79762 0,0 -57.0744,-1.13393 -105.455351,40.82143 0,0 -11.717262,14.36309 -18.898809,21.92262 0,0 -49.89285762,26.83631 -23.056548,-22.67857 0,0 -6.803571,19.27678 -3.401786,21.92262 0,0 8.315477,4.53571 19.654762,-2.26786 0,0 18.142858,-29.48214 53.672619,-44.22322 0,0 27.214283,-20.78869 68.791663,-20.41071 0,0 29.86012,-8.31548 51.78274,26.83631 0,0 18.89881,21.16667 -1.51191,43.84524 0,0 -13.60715,9.82738 -21.16667,2.64583 z"
       id="path2636"
       inkscape:connector-curvature="0" />
    <path
       style="fill:#505000;stroke:#323300;stroke-width:0.865;stroke-linecap:butt;stroke-linejoin:miter;stroke-opacity:1;fill-opacity:1;stroke-miterlimit:4;stroke-dasharray:none"
       d="m 137.20536,269.02976 c 0,0 -34.77381,-0.37797 -31.75,-38.55357 1.88988,-0.75595 6.04762,-29.10416 33.2619,-38.93154 0,0 41.57738,-10.58334 46.49107,48.38095 0,0 0.37798,25.3244 43.08929,18.52083 0,0 -20.78869,12.85119 -41.57738,-3.77976 0,0 -10.58334,-7.55952 -9.82738,-24.19047 1.13393,-0.75596 -0.75596,-18.52084 -19.65476,-32.88393 0,0 -17.76489,-4.15774 -32.88393,9.07143 0,0 -10.96131,19.65476 -12.85119,28.34821 0,0 -2.26786,10.58333 6.42559,20.41071 z"
       id="path2638"
       inkscape:connector-curvature="0" />
    <path
       style="fill:#505000;stroke:#323300;stroke-width:0.865;stroke-linecap:butt;stroke-linejoin:miter;stroke-opacity:1;fill-opacity:1;stroke-miterlimit:4;stroke-dasharray:none"
       d="m 100.91964,268.27381 c 0,0 -51.404759,-4.53571 -43.845235,-35.52976 7.559522,-30.99405 -36.285715,2.64583 -36.285715,2.64583 0,0 15.875,-20.03273 29.86012,-21.92261 0,0 17.386904,-3.77977 12.473214,18.14285 0,0 -5.291667,15.11905 5.291667,18.14286 z"
       id="path2640"
       inkscape:connector-curvature="0" />
    <path
       style="fill:#505000;stroke:#323300;stroke-width:0.865;stroke-linecap:butt;stroke-linejoin:miter;stroke-opacity:1;fill-opacity:1;stroke-miterlimit:4;stroke-dasharray:none"
       d="m 62.366072,264.49405 c 0,0 0,-42.33333 30.994045,-56.69643 0,0 41.577383,-18.14285 59.342263,18.89881 0,0 1.51191,29.48215 56.31845,17.76488 1.88988,-2.26785 20.78869,-10.96131 26.45834,-35.52976 0,0 -16.25298,23.8125 -30.99405,29.48215 0,0 -31.75,9.07142 -40.82143,-5.66965 0,0 -10.96131,-34.77381 -42.71131,-34.77381 0,0 -36.285713,-7.18154 -50.648809,20.41072 0,0 -20.032737,33.2619 -7.937499,46.11309 z"
       id="path2642"
       inkscape:connector-curvature="0" />
  </g>
</svg>
