<?xml version="1.0" encoding="UTF-8" standalone="no"?>
<!-- Created with Inkscape (http://www.inkscape.org/) -->

<svg
   xmlns:dc="http://purl.org/dc/elements/1.1/"
   xmlns:cc="http://creativecommons.org/ns#"
   xmlns:rdf="http://www.w3.org/1999/02/22-rdf-syntax-ns#"
   xmlns:svg="http://www.w3.org/2000/svg"
   xmlns="http://www.w3.org/2000/svg"
   xmlns:sodipodi="http://sodipodi.sourceforge.net/DTD/sodipodi-0.dtd"
   xmlns:inkscape="http://www.inkscape.org/namespaces/inkscape"
   width="210mm"
   height="297mm"
   viewBox="0 0 210 297"
   version="1.1"
   id="svg879"
   inkscape:export-filename="/home/josh/android/fishtank/assets_local/grass2.png"
   inkscape:export-xdpi="39.05127"
   inkscape:export-ydpi="39.05127"
   sodipodi:docname="grass2.svg"
   inkscape:version="0.92.2 5c3e80d, 2017-08-06">
  <defs
     id="defs873" />
  <sodipodi:namedview
     id="base"
     pagecolor="#ffffff"
     bordercolor="#666666"
     borderopacity="1.0"
     inkscape:pageopacity="0.0"
     inkscape:pageshadow="2"
     inkscape:zoom="1.979899"
     inkscape:cx="382.30869"
     inkscape:cy="463.01529"
     inkscape:document-units="mm"
     inkscape:current-layer="layer1"
     showgrid="false"
     inkscape:snap-nodes="false"
     inkscape:window-width="1918"
     inkscape:window-height="1042"
     inkscape:window-x="0"
     inkscape:window-y="18"
     inkscape:window-maximized="0" />
  <metadata
     id="metadata876">
    <rdf:RDF>
      <cc:Work
         rdf:about="">
        <dc:format>image/svg+xml</dc:format>
        <dc:type
           rdf:resource="http://purl.org/dc/dcmitype/StillImage" />
      </cc:Work>
    </rdf:RDF>
  </metadata>
  <g
     inkscape:label="Layer 1"
     inkscape:groupmode="layer"
     id="layer1">
    <path
       style="fill:#2b4513;stroke:#133000;stroke-width:1.165;stroke-linecap:butt;stroke-linejoin:miter;stroke-opacity:1;fill-opacity:1;stroke-miterlimit:4;stroke-dasharray:none"
       d="m 81.264881,193.05654 c 0,0 5.669642,-9.4494 3.023809,-15.875 0,0 6.99256,5.10269 5.669643,12.47322 0,0 4.913691,-10.96131 0.566965,-15.68601 1.889881,0.56696 5.858631,-0.37798 6.992559,8.88244 0.566965,-0.56696 2.126113,-5.95312 1.370163,-7.843 0,0 3.82701,-0.0945 5.52791,9.92187 0,0 1.4174,-9.82738 5.19717,-11.33929 0,0 -1.51191,1.88988 0.18898,12.66221 0,0 2.07887,-10.77233 5.48066,-13.41816 0,0 -1.32292,5.29167 0.37797,11.71726 0,0 6.04762,-9.4494 5.29167,-12.47321 0,0 2.83482,6.04762 2.45685,9.63839 0,0 2.45684,-4.34672 4.53571,-3.59077 0,0 -2.45684,6.42559 -0.94494,10.01637 0,0 6.4256,-1.32292 6.23661,-3.40179 0,0 1.32291,1.70089 -0.18899,5.29167 l 3.2128,-1.88988 -2.26786,5.10268 -25.70238,4.34672 -25.89137,-4.016 z"
       id="path3430"
       inkscape:connector-curvature="0"
       sodipodi:nodetypes="cccccccccccccccccccccc" />
  </g>
</svg>
