<?xml version="1.0" encoding="UTF-8" standalone="no"?>
<!-- Created with Inkscape (http://www.inkscape.org/) -->

<svg
   xmlns:dc="http://purl.org/dc/elements/1.1/"
   xmlns:cc="http://creativecommons.org/ns#"
   xmlns:rdf="http://www.w3.org/1999/02/22-rdf-syntax-ns#"
   xmlns:svg="http://www.w3.org/2000/svg"
   xmlns="http://www.w3.org/2000/svg"
   xmlns:sodipodi="http://sodipodi.sourceforge.net/DTD/sodipodi-0.dtd"
   xmlns:inkscape="http://www.inkscape.org/namespaces/inkscape"
   width="297mm"
   height="210mm"
   viewBox="0 0 297 210"
   version="1.1"
   id="svg2879"
   inkscape:export-filename="/home/josh/android/fishtank/assets_local/grass5.png"
   inkscape:export-xdpi="30.140787"
   inkscape:export-ydpi="30.140787"
   inkscape:version="0.92.2 5c3e80d, 2017-08-06"
   sodipodi:docname="grass5.svg">
  <defs
     id="defs2873" />
  <sodipodi:namedview
     id="base"
     pagecolor="#ffffff"
     bordercolor="#666666"
     borderopacity="1.0"
     inkscape:pageopacity="0.0"
     inkscape:pageshadow="2"
     inkscape:zoom="1.4"
     inkscape:cx="424.34153"
     inkscape:cy="359.69357"
     inkscape:document-units="mm"
     inkscape:current-layer="layer1"
     showgrid="false"
     inkscape:snap-nodes="false"
     inkscape:window-width="1918"
     inkscape:window-height="1042"
     inkscape:window-x="0"
     inkscape:window-y="18"
     inkscape:window-maximized="0" />
  <metadata
     id="metadata2876">
    <rdf:RDF>
      <cc:Work
         rdf:about="">
        <dc:format>image/svg+xml</dc:format>
        <dc:type
           rdf:resource="http://purl.org/dc/dcmitype/StillImage" />
        <dc:title></dc:title>
      </cc:Work>
    </rdf:RDF>
  </metadata>
  <g
     inkscape:label="Layer 1"
     inkscape:groupmode="layer"
     id="layer1"
     transform="translate(0,-87)">
    <path
       style="fill:#505000;fill-opacity:1;stroke:#323300;stroke-width:1.36500001;stroke-linecap:butt;stroke-linejoin:miter;stroke-miterlimit:4;stroke-dasharray:none;stroke-opacity:1"
       d="m 148.54465,237.09078 c 0.75595,-1.13393 2.64583,-6.04762 2.64583,-6.04762 -0.75595,2.07887 -5.85863,2.26785 -5.85863,2.26785 2.45684,-1.88988 1.32292,-9.26041 1.32292,-9.26041 -0.94494,2.45684 -6.04762,3.59077 -6.04762,3.59077 -0.37798,-2.64583 1.32291,-9.4494 1.32291,-9.4494 -3.96875,2.64583 -5.48065,12.09524 -5.48065,12.09524 -2.07887,0.18898 -2.45685,-5.85864 -2.45685,-5.85864 0,2.26786 -6.61458,6.4256 -6.61458,6.4256 -1.51191,-2.07887 -0.75596,-7.18155 -0.75596,-7.18155 -2.07886,1.51191 -8.69345,7.55953 -8.69345,7.55953 -1.32291,-4.15774 0.75595,-10.58334 0.75595,-10.58334 -4.91369,2.07887 -7.37053,8.31548 -7.37053,8.31548 1.5119,-4.7247 -1.51191,-10.58333 -1.51191,-10.58333 -1.13392,6.2366 -6.80357,7.9375 -6.80357,7.9375 2.26786,-2.83483 0,-7.18155 0,-7.18155 -0.56696,3.59077 -8.315474,7.9375 -8.315474,7.9375 1.889881,-10.77232 -2.078869,-13.60715 -2.078869,-13.60715 1.322916,6.4256 -5.102679,15.30804 -5.102679,15.30804 -1.700893,-7.9375 0.566964,-10.77232 0.566964,-10.77232 -3.96875,0 -5.480655,4.34673 -5.480655,4.34673 -1.322916,2.83482 -1.133928,7.55952 -1.133928,7.55952 -4.535714,-5.10268 -8.882442,-2.64584 -8.882442,-2.64584 3.212798,2.83483 5.669642,10.96131 5.669642,10.96131 0,0 -4.346724,-7.55952 -6.425593,-6.42559 0,0 1.889881,4.15774 1.322917,6.04762 l 37.986607,3.40178 z"
       id="path3428"
       inkscape:connector-curvature="0" />
  </g>
</svg>
