<?xml version="1.0" encoding="UTF-8" standalone="no"?>
<!-- Created with Inkscape (http://www.inkscape.org/) -->

<svg
   xmlns:dc="http://purl.org/dc/elements/1.1/"
   xmlns:cc="http://creativecommons.org/ns#"
   xmlns:rdf="http://www.w3.org/1999/02/22-rdf-syntax-ns#"
   xmlns:svg="http://www.w3.org/2000/svg"
   xmlns="http://www.w3.org/2000/svg"
   xmlns:sodipodi="http://sodipodi.sourceforge.net/DTD/sodipodi-0.dtd"
   xmlns:inkscape="http://www.inkscape.org/namespaces/inkscape"
   width="210mm"
   height="297mm"
   viewBox="0 0 210 297"
   version="1.1"
   id="svg879"
   inkscape:export-filename="/home/josh/android/fishtank/assets_local/grass2.png"
   inkscape:export-xdpi="22.619328"
   inkscape:export-ydpi="22.619328"
   inkscape:version="0.92.2 5c3e80d, 2017-08-06"
   sodipodi:docname="grass2.svg">
  <defs
     id="defs873" />
  <sodipodi:namedview
     id="base"
     pagecolor="#ffffff"
     bordercolor="#666666"
     borderopacity="1.0"
     inkscape:pageopacity="0.0"
     inkscape:pageshadow="2"
     inkscape:zoom="1.4"
     inkscape:cx="336.59884"
     inkscape:cy="582.05478"
     inkscape:document-units="mm"
     inkscape:current-layer="layer1"
     showgrid="false"
     inkscape:snap-nodes="false"
     inkscape:window-width="1918"
     inkscape:window-height="1042"
     inkscape:window-x="0"
     inkscape:window-y="18"
     inkscape:window-maximized="0" />
  <metadata
     id="metadata876">
    <rdf:RDF>
      <cc:Work
         rdf:about="">
        <dc:format>image/svg+xml</dc:format>
        <dc:type
           rdf:resource="http://purl.org/dc/dcmitype/StillImage" />
        <dc:title></dc:title>
      </cc:Work>
    </rdf:RDF>
  </metadata>
  <g
     inkscape:label="Layer 1"
     inkscape:groupmode="layer"
     id="layer1">
    <path
       style="fill:#624e13;stroke:#4e4000;stroke-width:2.765;stroke-linecap:butt;stroke-linejoin:miter;stroke-opacity:1;stroke-miterlimit:4;stroke-dasharray:none;fill-opacity:1"
       d="m 47.624999,168.48809 c 0,0 40.443452,19.65476 83.532741,1.88988 0,0 -8.69345,-18.70982 0.56696,-34.01785 0,0 -12.6622,5.85863 -15.49702,27.59226 0,0 -3.59078,-29.86012 6.04762,-38.93155 0,0 -11.90625,-5.85863 -20.03274,27.97024 0,0 -3.02381,-32.50595 -16.063988,-43.46726 0,0 10.016368,24.94642 -6.236608,45.35714 0,0 -2.078869,-21.92262 -15.119047,-35.52976 0,0 1.133928,33.45089 -4.535715,38.1756 0,0 -3.023809,-14.17411 -11.339285,-16.44197 0,0 4.157736,20.97767 -1.322918,27.40327 z"
       id="path1424"
       inkscape:connector-curvature="0"
       sodipodi:nodetypes="cccccccccccc" />
  </g>
</svg>
