<?xml version="1.0" encoding="UTF-8" standalone="no"?>
<!-- Created with Inkscape (http://www.inkscape.org/) -->

<svg
   xmlns:dc="http://purl.org/dc/elements/1.1/"
   xmlns:cc="http://creativecommons.org/ns#"
   xmlns:rdf="http://www.w3.org/1999/02/22-rdf-syntax-ns#"
   xmlns:svg="http://www.w3.org/2000/svg"
   xmlns="http://www.w3.org/2000/svg"
   xmlns:sodipodi="http://sodipodi.sourceforge.net/DTD/sodipodi-0.dtd"
   xmlns:inkscape="http://www.inkscape.org/namespaces/inkscape"
   width="297mm"
   height="210mm"
   viewBox="0 0 297 210"
   version="1.1"
   id="svg5681"
   inkscape:export-filename="/home/josh/android/fishtank/assets_local/ground.png"
   inkscape:export-xdpi="406.34082"
   inkscape:export-ydpi="406.34082"
   inkscape:version="0.92.1 r"
   sodipodi:docname="ground.svg">
  <defs
     id="defs5675" />
  <sodipodi:namedview
     id="base"
     pagecolor="#b2a8ac"
     bordercolor="#666666"
     borderopacity="1.0"
     inkscape:pageopacity="0"
     inkscape:pageshadow="2"
     inkscape:zoom="2.8"
     inkscape:cx="515.13213"
     inkscape:cy="524.23506"
     inkscape:document-units="mm"
     inkscape:current-layer="layer1"
     showgrid="false"
     inkscape:window-width="1918"
     inkscape:window-height="1042"
     inkscape:window-x="0"
     inkscape:window-y="18"
     inkscape:window-maximized="0"
     inkscape:snap-nodes="false" />
  <metadata
     id="metadata5678">
    <rdf:RDF>
      <cc:Work
         rdf:about="">
        <dc:format>image/svg+xml</dc:format>
        <dc:type
           rdf:resource="http://purl.org/dc/dcmitype/StillImage" />
        <dc:title />
      </cc:Work>
    </rdf:RDF>
  </metadata>
  <g
     inkscape:label="Layer 1"
     inkscape:groupmode="layer"
     id="layer1"
     transform="translate(0,-87)">
    <path
       style="fill:#315c77;fill-opacity:1;stroke:#3a3a7e;stroke-width:0;stroke-miterlimit:4;stroke-dasharray:none;stroke-opacity:1"
       d="M 903.82227 278.52344 C 888.09942 278.67686 875.35742 278.96875 875.35742 278.96875 C 851.25027 280.39715 792.85742 279.14648 792.85742 279.14648 C 768.39311 278.07506 721.96484 278.96875 721.96484 278.96875 C 716.96483 279.6827 659.28516 279.32617 659.28516 279.32617 C 651.07088 278.07636 599.46484 278.96875 599.46484 278.96875 C 566.96484 278.61143 516.96484 279.14648 516.96484 279.14648 C 497.67916 280.39649 439.10742 278.96875 439.10742 278.96875 C 413.21456 278.61143 382.14258 279.14648 382.14258 279.14648 C 341.07116 280.39649 335.89258 279.14648 335.89258 279.14648 C 323.92829 278.43219 306.60742 280.03906 306.60742 280.03906 L 295.97461 278.79883 L 295.97461 320.09766 L 1004.6367 320.09766 L 1004.6367 278.52344 L 1004.2852 278.52344 L 1004.2852 278.78906 C 988.03515 279.86052 957.14258 279.32617 957.14258 279.32617 C 951.79022 278.88749 944.12043 278.64294 935.61133 278.52344 L 903.82227 278.52344 z "
       id="rect6275"
       transform="matrix(0.26458333,0,0,0.26458333,0,87)" />
    <path
       inkscape:connector-curvature="0"
       id="path7455"
       d="m 78.288318,160.73959 2.83482,0.33073 c 0,0 4.582962,-0.42522 7.748513,-0.23623 0,0 1.370165,0.33073 12.236979,0 0,0 8.22098,-0.14174 15.0718,-0.0472 0,0 15.49703,0.37793 20.5997,0.0472 0,0 13.22917,-0.14174 21.82813,-0.0472 0,0 13.65439,-0.23628 15.82775,0.0944 0,0 15.26079,0.0945 16.58371,-0.0944 0,0 12.28422,-0.23628 18.75707,0.0472 0,0 15.44977,0.33073 21.82812,-0.0472 0,0 15.875,-0.37803 21.63914,0.0944 0,0 8.17373,0.14179 12.47321,-0.1417"
       style="fill:none;stroke:#000000;stroke-width:0.095;stroke-linecap:butt;stroke-linejoin:miter;stroke-miterlimit:4;stroke-dasharray:none;stroke-opacity:1" />
    <g
       id="g9094">
      <path
         inkscape:connector-curvature="0"
         id="path7458"
         d="m 98.248732,165.61112 c -1.353371,-1.51326 -3.477509,-2.56412 -3.477509,-2.56412 0,0 -0.190517,-0.30881 0.174883,-0.25876 0,0 2.416765,1.09991 3.496209,2.60507 0,0 0.116225,0.26281 -0.193583,0.21781 z"
         style="fill:#a5a07c;fill-opacity:0.94117647;stroke:#000000;stroke-width:0.04942821px;stroke-linecap:butt;stroke-linejoin:miter;stroke-opacity:1" />
      <path
         inkscape:connector-curvature="0"
         id="path7462"
         d="m 94.231993,164.37587 c 0,0 0.437212,-1.22336 1.174823,-1.65363 0,0 0.139091,-0.0114 0.09031,0.0766 0,0 -0.403558,0.20119 -1.265133,1.57704 z"
         style="fill:#9d998c;fill-opacity:1;stroke:#000000;stroke-width:0.04942821px;stroke-linecap:butt;stroke-linejoin:miter;stroke-opacity:1" />
      <path
         style="fill:#9d998c;fill-opacity:1;stroke:#000000;stroke-width:0.04942821px;stroke-linecap:butt;stroke-linejoin:miter;stroke-opacity:1"
         d="m 94.891016,164.71049 c 0,0 0.437211,-1.22336 1.174824,-1.65363 0,0 0.13909,-0.0114 0.09031,0.0766 0,0 -0.403558,0.20119 -1.265133,1.57704 z"
         id="path7470"
         inkscape:connector-curvature="0" />
      <path
         inkscape:connector-curvature="0"
         id="path7472"
         d="m 95.515684,165.04663 c 0,0 0.423486,-1.18259 1.135754,-1.59931 0,0 0.134218,-0.0112 0.08704,0.0739 0,0 -0.389645,0.19492 -1.222786,1.52541 z"
         style="fill:#9d998c;fill-opacity:1;stroke:#000000;stroke-width:0.04942821px;stroke-linecap:butt;stroke-linejoin:miter;stroke-opacity:1" />
      <path
         style="fill:#9d998c;fill-opacity:1;stroke:#000000;stroke-width:0.04942821px;stroke-linecap:butt;stroke-linejoin:miter;stroke-opacity:1"
         d="m 96.097899,165.35648 c 0,0 0.409763,-1.14182 1.096686,-1.54497 0,0 0.129345,-0.011 0.08376,0.0712 0,0 -0.375733,0.18866 -1.180442,1.4738 z"
         id="path7474"
         inkscape:connector-curvature="0" />
      <path
         inkscape:connector-curvature="0"
         id="path7476"
         d="m 96.758458,165.72295 c 0,0 0.382317,-1.06027 1.018549,-1.43632 0,0 0.1196,-0.0106 0.07721,0.0658 0,0 -0.347908,0.17615 -1.095752,1.37057 z"
         style="fill:#9d998c;fill-opacity:1;stroke:#000000;stroke-width:0.04942821px;stroke-linecap:butt;stroke-linejoin:miter;stroke-opacity:1" />
      <path
         style="fill:#9d998c;fill-opacity:1;stroke:#000000;stroke-width:0.04942821px;stroke-linecap:butt;stroke-linejoin:miter;stroke-opacity:1"
         d="m 97.43508,165.95543 c 0,0 0.327645,-0.89796 0.863003,-1.22 0,0 0.100209,-0.01 0.06418,0.055 0,0 -0.292539,0.15121 -0.927174,1.16503 z"
         id="path7478"
         inkscape:connector-curvature="0" />
    </g>
    <path
       inkscape:connector-curvature="0"
       id="path7507"
       d="m 225.30105,167.36888 c -1.98291,0.43547 -3.94169,1.76944 -3.94169,1.76944 0,0 -0.36257,0.0142 -0.13948,-0.27944 0,0 2.14525,-1.56476 3.98654,-1.76561 0,0 0.28601,0.0279 0.0946,0.27561 z"
       style="fill:#6b603d;fill-opacity:0.94117647;stroke:#000000;stroke-width:0.0494282px;stroke-linecap:butt;stroke-linejoin:miter;stroke-opacity:1" />
    <path
       inkscape:connector-curvature="0"
       id="path7509"
       d="m 222.25196,170.26079 c 0,0 -0.85081,-0.98178 -0.86325,-1.83563 0,0 0.0584,-0.12676 0.11108,-0.041 0,0 -0.023,0.45034 0.75217,1.87666 z"
       style="fill:#918264;fill-opacity:1;stroke:#000000;stroke-width:0.0494282px;stroke-linecap:butt;stroke-linejoin:miter;stroke-opacity:1" />
    <path
       style="fill:#918264;fill-opacity:1;stroke:#000000;stroke-width:0.0494282px;stroke-linecap:butt;stroke-linejoin:miter;stroke-opacity:1"
       d="m 222.86716,169.85113 c 0,0 -0.85081,-0.98177 -0.86325,-1.83562 0,0 0.0584,-0.12676 0.11108,-0.041 0,0 -0.023,0.45034 0.75216,1.87666 z"
       id="path7511"
       inkscape:connector-curvature="0" />
    <path
       inkscape:connector-curvature="0"
       id="path7513"
       d="m 223.4668,169.47215 c 0,0 -0.82204,-0.94979 -0.83512,-1.7749 0,0 0.0562,-0.12242 0.10711,-0.0395 0,0 -0.0216,0.43514 0.728,1.81441 z"
       style="fill:#918264;fill-opacity:1;stroke:#000000;stroke-width:0.0494282px;stroke-linecap:butt;stroke-linejoin:miter;stroke-opacity:1" />
    <path
       style="fill:#918264;fill-opacity:1;stroke:#000000;stroke-width:0.0494282px;stroke-linecap:butt;stroke-linejoin:miter;stroke-opacity:1"
       d="m 224.02269,169.11723 c 0,0 -0.79327,-0.91781 -0.80699,-1.71418 0,0 0.0539,-0.11808 0.10314,-0.038 0,0 -0.0202,0.41996 0.70385,1.75218 z"
       id="path7515"
       inkscape:connector-curvature="0" />
    <path
       inkscape:connector-curvature="0"
       id="path7517"
       d="m 224.66638,168.72189 c 0,0 -0.73572,-0.85385 -0.75073,-1.59275 0,0 0.0495,-0.1094 0.0952,-0.035 0,0 -0.0175,0.38957 0.65553,1.6277 z"
       style="fill:#918264;fill-opacity:1;stroke:#000000;stroke-width:0.0494282px;stroke-linecap:butt;stroke-linejoin:miter;stroke-opacity:1" />
    <path
       style="fill:#918264;fill-opacity:1;stroke:#000000;stroke-width:0.0494282px;stroke-linecap:butt;stroke-linejoin:miter;stroke-opacity:1"
       d="m 225.20126,168.24673 c 0,0 -0.6212,-0.72649 -0.63872,-1.351 0,0 0.0407,-0.0921 0.0794,-0.0289 0,0 -0.012,0.32909 0.55931,1.37989 z"
       id="path7519"
       inkscape:connector-curvature="0" />
    <path
       style="fill:#a39a80;fill-opacity:0.94117647;stroke:#000000;stroke-width:0.07966004px;stroke-linecap:butt;stroke-linejoin:miter;stroke-opacity:1"
       d="m 118.96299,167.76482 c -0.42748,0.23134 0.0352,0.50293 0.0352,0.50293 0.69907,0.0604 0.67392,-0.50293 0.67392,-0.50293 0,0 2.34367,-0.57335 2.35875,-0.5834 0.40234,0.34701 0.71416,0.0402 0.74433,0.0352 0.35709,-0.55322 -0.30678,-0.46269 -0.30678,-0.46269 0.171,-0.41743 -0.28165,-0.342 -0.28165,-0.342 -0.26152,0.0503 -0.2957,0.35729 -0.2957,0.35729 -1.45095,0.39829 -2.3898,0.569 -2.3898,0.569 0,0 -0.31699,-0.38815 -0.73442,-0.1216 0,0 -0.61357,0.35708 0.19614,0.5482 z"
       id="path7523"
       inkscape:connector-curvature="0" />
    <path
       inkscape:connector-curvature="0"
       id="path7525"
       d="m 168.28634,170.75652 c 0.31987,0.36598 0.48281,-0.14518 0.48281,-0.14518 -0.0952,-0.69519 -0.6391,-0.5465 -0.6391,-0.5465 0,0 -1.07581,-2.15966 -1.08893,-2.17216 0.24979,-0.46893 -0.1182,-0.70546 -0.12972,-0.73378 -0.61832,-0.22638 -0.3837,0.40121 -0.3837,0.40121 -0.44485,-0.0748 -0.27151,0.3501 -0.27151,0.3501 0.1067,0.24401 0.41367,0.20968 0.41367,0.20968 0.7083,1.32749 1.08174,2.20562 1.08174,2.20562 0,0 -0.30874,0.39475 0.0433,0.74317 0,0 0.48353,0.51977 0.49149,-0.31215 z"
       style="fill:#6d6b57;fill-opacity:1;stroke:#000000;stroke-width:0.07966004px;stroke-linecap:butt;stroke-linejoin:miter;stroke-opacity:1" />
    <path
       style="fill:none;stroke:#000000;stroke-width:0.065;stroke-linecap:butt;stroke-linejoin:miter;stroke-opacity:1;stroke-miterlimit:4;stroke-dasharray:none"
       d="m 207.00025,164.90205 c 0,0 3.40769,-0.26727 8.75308,1.40316"
       id="path7527"
       inkscape:connector-curvature="0" />
    <path
       style="fill:none;stroke:#000000;stroke-width:0.065;stroke-linecap:butt;stroke-linejoin:miter;stroke-opacity:1;stroke-miterlimit:4;stroke-dasharray:none"
       d="m 148.46822,165.97112 c 0,0 -8.81989,-0.53454 -11.75986,-1.1359"
       id="path7529"
       inkscape:connector-curvature="0" />
    <path
       style="fill:none;stroke:#000000;stroke-width:0.065;stroke-linecap:butt;stroke-linejoin:miter;stroke-opacity:1;stroke-miterlimit:4;stroke-dasharray:none"
       d="m 88.53303,167.90882 c -7.483547,0.86863 -8.619443,1.87089 -8.619443,1.87089"
       id="path7531"
       inkscape:connector-curvature="0" />
    <path
       style="fill:none;stroke:#000000;stroke-width:0.065;stroke-linecap:butt;stroke-linejoin:miter;stroke-opacity:1;stroke-miterlimit:4;stroke-dasharray:none"
       d="m 232.52449,167.64155 c 0,0 17.7066,-3.34087 24.25471,-2.67269"
       id="path7533"
       inkscape:connector-curvature="0" />
    <path
       inkscape:connector-curvature="0"
       id="path7554"
       d="m 178.34546,168.13302 c 0,0 3.03589,-1.57072 8.61026,-2.1092"
       style="fill:none;stroke:#000000;stroke-width:0.065;stroke-linecap:butt;stroke-linejoin:miter;stroke-opacity:1;stroke-miterlimit:4;stroke-dasharray:none" />
    <ellipse
       style="fill:#7e888f;fill-opacity:0.94117647;stroke:#3a3a7e;stroke-width:0;stroke-miterlimit:4;stroke-dasharray:none;stroke-opacity:1"
       id="path7556"
       cx="86.438423"
       cy="164.99182"
       rx="0.1889883"
       ry="0.094494149" />
    <ellipse
       ry="0.094494149"
       rx="0.1889883"
       cy="182.36725"
       cx="-72.121857"
       id="ellipse7558"
       style="fill:#628dac;fill-opacity:0.94117647;stroke:#3a3a7e;stroke-width:0;stroke-miterlimit:4;stroke-dasharray:none;stroke-opacity:1"
       transform="rotate(-53.130047)" />
    <ellipse
       transform="rotate(-53.130047)"
       style="fill:#3b566d;fill-opacity:0.94117647;stroke:#3a3a7e;stroke-width:0;stroke-miterlimit:4;stroke-dasharray:none;stroke-opacity:1"
       id="ellipse7560"
       cx="-60.7365"
       cy="191.64183"
       rx="0.1889883"
       ry="0.094494149" />
    <ellipse
       ry="0.094494149"
       rx="0.1889883"
       cy="223.42038"
       cx="-35.590332"
       id="ellipse7562"
       style="fill:#6f6b5f;fill-opacity:0.94117647;stroke:#3a3a7e;stroke-width:0;stroke-miterlimit:4;stroke-dasharray:none;stroke-opacity:1"
       transform="rotate(-53.130047)" />
    <ellipse
       transform="rotate(-53.130047)"
       style="fill:#7e5648;fill-opacity:0.94117647;stroke:#3a3a7e;stroke-width:0;stroke-miterlimit:4;stroke-dasharray:none;stroke-opacity:1"
       id="ellipse7564"
       cx="-51.145424"
       cy="216.37784"
       rx="0.1889883"
       ry="0.094494149" />
    <ellipse
       transform="rotate(-53.130047)"
       style="fill:#7e5648;fill-opacity:0.94117647;stroke:#3a3a7e;stroke-width:0;stroke-miterlimit:4;stroke-dasharray:none;stroke-opacity:1"
       id="ellipse7566"
       cx="-21.146889"
       cy="252.71825"
       rx="0.1889883"
       ry="0.094494149" />
    <ellipse
       ry="0.094494149"
       rx="0.1889883"
       cy="-9.4248838"
       cx="259.51517"
       id="ellipse7568"
       style="fill:#7e7c6e;fill-opacity:1;stroke:#3a3a7e;stroke-width:0;stroke-miterlimit:4;stroke-dasharray:none;stroke-opacity:1"
       transform="rotate(40.855298)" />
    <ellipse
       transform="rotate(40.855298)"
       style="fill:#7e5648;fill-opacity:0.94117647;stroke:#3a3a7e;stroke-width:0;stroke-miterlimit:4;stroke-dasharray:none;stroke-opacity:1"
       id="ellipse7570"
       cx="305.17291"
       cy="-44.159393"
       rx="0.1889883"
       ry="0.094494149" />
    <ellipse
       ry="0.094494149"
       rx="0.1889883"
       cy="-44.159393"
       cx="305.17291"
       id="ellipse7572"
       style="fill:#7e323d;fill-opacity:0.94117647;stroke:#3a3a7e;stroke-width:0;stroke-miterlimit:4;stroke-dasharray:none;stroke-opacity:1"
       transform="rotate(40.855298)" />
  </g>
</svg>
