<?xml version="1.0" encoding="UTF-8" standalone="no"?>
<!-- Created with Inkscape (http://www.inkscape.org/) -->

<svg
   xmlns:dc="http://purl.org/dc/elements/1.1/"
   xmlns:cc="http://creativecommons.org/ns#"
   xmlns:rdf="http://www.w3.org/1999/02/22-rdf-syntax-ns#"
   xmlns:svg="http://www.w3.org/2000/svg"
   xmlns="http://www.w3.org/2000/svg"
   xmlns:sodipodi="http://sodipodi.sourceforge.net/DTD/sodipodi-0.dtd"
   xmlns:inkscape="http://www.inkscape.org/namespaces/inkscape"
   width="210mm"
   height="297mm"
   viewBox="0 0 210 297"
   version="1.1"
   id="svg2640"
   inkscape:export-filename="/home/josh/android/fishtank/assets_local/platform_dmg.png"
   inkscape:export-xdpi="46.17522"
   inkscape:export-ydpi="46.17522"
   inkscape:version="0.92.1 r"
   sodipodi:docname="platform_dmg.svg">
  <defs
     id="defs2634" />
  <sodipodi:namedview
     id="base"
     pagecolor="#ffffff"
     bordercolor="#666666"
     borderopacity="1.0"
     inkscape:pageopacity="0.0"
     inkscape:pageshadow="2"
     inkscape:zoom="1.4"
     inkscape:cx="392.55849"
     inkscape:cy="544.46419"
     inkscape:document-units="mm"
     inkscape:current-layer="layer1"
     showgrid="false"
     inkscape:snap-nodes="false"
     inkscape:window-width="1918"
     inkscape:window-height="1042"
     inkscape:window-x="0"
     inkscape:window-y="18"
     inkscape:window-maximized="0" />
  <metadata
     id="metadata2637">
    <rdf:RDF>
      <cc:Work
         rdf:about="">
        <dc:format>image/svg+xml</dc:format>
        <dc:type
           rdf:resource="http://purl.org/dc/dcmitype/StillImage" />
        <dc:title />
      </cc:Work>
    </rdf:RDF>
  </metadata>
  <g
     inkscape:label="Layer 1"
     inkscape:groupmode="layer"
     id="layer1">
    <path
       style="fill:#49546e;fill-opacity:1;stroke:#474747;stroke-width:2.16499996;stroke-linecap:butt;stroke-linejoin:miter;stroke-miterlimit:4;stroke-dasharray:none;stroke-opacity:1;opacity:0"
       d="m 39.370443,129.12188 c 0,0 4.669414,-1.41741 8.088095,-0.75595 l 7.421032,1.03943 7.587801,0.66146 c 0,0 0.750442,0.18899 2.584855,-0.94494 0,0 8.338241,-0.75595 14.758687,-0.18899 0,0 19.344718,0.28348 19.594865,0.66146 0.250149,0.37798 10.005902,-1.41741 10.005902,-1.41741 0,0 4.41925,3.1183 8.92189,2.17336 l 12.09048,-1.36072 c 0,0 9.17204,1.51191 11.50676,0.75596 0,0 13.75809,-1.7009 18.92779,0.75595 l 15.42576,-1.03944 13.17442,0.37798 c 0,0 7.92134,2.36235 9.08869,0.85045 0,0 1.41749,-0.75596 1.41749,0.66145 0,0 0.0833,6.04762 -1.16735,6.4256 l 1.08398,7.55952 0.75044,4.34673 0.16676,5.48065 c 0,0 -0.33352,0.66146 -1.00059,1.03944 l 0.41691,4.7247 c 0,0 -0.41691,1.51191 -1.75103,0.75595 l -11.00648,1.03944 c 0,0 -9.50559,1.22842 -12.75752,-0.47247 l -10.75632,-0.75595 c 0,0 -8.25486,2.26785 -12.50735,1.60639 0,0 -14.42516,-2.36235 -21.92958,-1.03943 0,0 -14.50854,-1.70089 -19.09458,-0.28348 0,0 -13.841472,1.98437 -18.9278,0.66146 0,0 -16.259571,1.03943 -22.179722,-1.22843 0,0 -15.175601,-0.0945 -19.34472,0.94494 0,0 -10.672948,0.66146 -11.42339,-0.66145 0,0 -1.000588,-4.25224 -0.833823,-8.78795 0,0 0.917206,-10.58333 0.667058,-13.51265 0,0 -0.917207,-5.10268 -0.250147,-7.65402 0,0 -0.166765,-1.81427 1.250737,-2.41904 z"
       id="path3187"
       inkscape:connector-curvature="0" />
    <path
       style="fill:none;stroke:#000000;stroke-width:0.665;stroke-linecap:butt;stroke-linejoin:miter;stroke-opacity:1;stroke-miterlimit:4;stroke-dasharray:none"
       d="m 49.231399,161.77902 3.96875,-10.96131 -5.291667,-8.40997 14.74107,-3.87426 3.68527,10.96131 -13.323663,1.03944"
       id="path1044"
       inkscape:connector-curvature="0" />
    <path
       style="fill:none;stroke:#000000;stroke-width:0.665;stroke-linecap:butt;stroke-linejoin:miter;stroke-opacity:1;stroke-miterlimit:4;stroke-dasharray:none"
       d="m 66.429315,149.4003 17.859375,4.15773 8.504465,-6.70907 -11.433781,-12.00075 z"
       id="path1046"
       inkscape:connector-curvature="0" />
    <path
       style="fill:none;stroke:#000000;stroke-width:0.665;stroke-linecap:butt;stroke-linejoin:miter;stroke-opacity:1;stroke-miterlimit:4;stroke-dasharray:none"
       d="m 92.793155,146.84896 14.079615,-12.56771 -6.61459,-3.59077 -23.529014,-0.47248 4.91369,4.72471"
       id="path1050"
       inkscape:connector-curvature="0" />
    <path
       style="fill:none;stroke:#000000;stroke-width:0.665;stroke-linecap:butt;stroke-linejoin:miter;stroke-opacity:1;stroke-miterlimit:4;stroke-dasharray:none"
       d="m 62.460565,138.34449 -5.291667,-7.843 -18.048364,0.66145 8.693455,11.33929"
       id="path1052"
       inkscape:connector-curvature="0" />
    <path
       style="fill:none;stroke:#000000;stroke-width:0.665;stroke-linecap:butt;stroke-linejoin:miter;stroke-opacity:1;stroke-miterlimit:4;stroke-dasharray:none"
       d="m 84.383183,153.74702 15.024555,8.12649"
       id="path1054"
       inkscape:connector-curvature="0" />
    <path
       style="fill:none;stroke:#000000;stroke-width:0.665;stroke-linecap:butt;stroke-linejoin:miter;stroke-opacity:1;stroke-miterlimit:4;stroke-dasharray:none"
       d="m 102.90402,137.87202 c 0.18899,0.37798 6.61458,16.44197 6.61458,16.44197 l -9.921875,7.55952"
       id="path1056"
       inkscape:connector-curvature="0" />
    <path
       style="fill:none;stroke:#000000;stroke-width:0.665;stroke-linecap:butt;stroke-linejoin:miter;stroke-opacity:1;stroke-miterlimit:4;stroke-dasharray:none"
       d="m 109.80208,154.31399 14.74107,-23.43453"
       id="path1058"
       inkscape:connector-curvature="0" />
    <path
       style="fill:none;stroke:#000000;stroke-width:0.665;stroke-linecap:butt;stroke-linejoin:miter;stroke-opacity:1;stroke-miterlimit:4;stroke-dasharray:none"
       d="m 114.2433,147.51042 19.18229,-0.0945 0.28348,12.85119"
       id="path1060"
       inkscape:connector-curvature="0" />
    <path
       style="fill:none;stroke:#000000;stroke-width:0.665;stroke-linecap:butt;stroke-linejoin:miter;stroke-opacity:1;stroke-miterlimit:4;stroke-dasharray:none"
       d="m 133.52009,147.41592 24.85193,13.70164 7.74851,-7.08706 1.22843,-14.36309 -25.4189,12.28423"
       id="path1062"
       inkscape:connector-curvature="0" />
    <path
       style="fill:none;stroke:#000000;stroke-width:0.665;stroke-linecap:butt;stroke-linejoin:miter;stroke-opacity:1;stroke-miterlimit:4;stroke-dasharray:none"
       d="m 167.25446,139.57292 -2.64583,-8.032"
       id="path1064"
       inkscape:connector-curvature="0" />
    <path
       style="fill:none;stroke:#000000;stroke-width:0.665;stroke-linecap:butt;stroke-linejoin:miter;stroke-opacity:1;stroke-miterlimit:4;stroke-dasharray:none"
       d="m 143.53646,150.9122 c 0,-0.37797 -3.77976,-20.31622 -3.77976,-20.31622"
       id="path1066"
       inkscape:connector-curvature="0" />
    <path
       style="fill:none;stroke:#000000;stroke-width:0.665;stroke-linecap:butt;stroke-linejoin:miter;stroke-opacity:1;stroke-miterlimit:4;stroke-dasharray:none"
       d="m 166.6875,146.84896 16.91443,-3.49628 5.95313,-12.6622"
       id="path1068"
       inkscape:connector-curvature="0" />
    <path
       style="fill:none;stroke:#000000;stroke-width:0.665;stroke-linecap:butt;stroke-linejoin:miter;stroke-opacity:1;stroke-miterlimit:4;stroke-dasharray:none"
       d="m 183.69643,143.25818 9.16592,18.14286"
       id="path1070"
       inkscape:connector-curvature="0" />
    <path
       style="fill:none;stroke:#000000;stroke-width:0.665;stroke-linecap:butt;stroke-linejoin:miter;stroke-opacity:1;stroke-miterlimit:4;stroke-dasharray:none"
       d="m 95.816964,144.10863 0.566962,-7.9375"
       id="path1072"
       inkscape:connector-curvature="0" />
    <path
       style="fill:none;stroke:#000000;stroke-width:0.665;stroke-linecap:butt;stroke-linejoin:miter;stroke-opacity:1;stroke-miterlimit:4;stroke-dasharray:none"
       d="m 120.38542,137.49405 11.71726,5.00818"
       id="path1074"
       inkscape:connector-curvature="0" />
    <path
       style="fill:none;stroke:#000000;stroke-width:0.665;stroke-linecap:butt;stroke-linejoin:miter;stroke-opacity:1;stroke-miterlimit:4;stroke-dasharray:none"
       d="m 80.603422,152.70759 -7.654017,2.07887"
       id="path1076"
       inkscape:connector-curvature="0" />
    <path
       style="fill:none;stroke:#000000;stroke-width:0.665;stroke-linecap:butt;stroke-linejoin:miter;stroke-opacity:1;stroke-miterlimit:4;stroke-dasharray:none"
       d="m 154.97024,145.43155 c 0.0945,-0.75596 0.56696,-6.33111 0.56696,-6.33111"
       id="path1078"
       inkscape:connector-curvature="0" />
    <path
       style="fill:none;stroke:#000000;stroke-width:0.665;stroke-linecap:butt;stroke-linejoin:miter;stroke-opacity:1;stroke-miterlimit:4;stroke-dasharray:none"
       d="m 187.00372,149.58928 6.2366,4.9137"
       id="path1080"
       inkscape:connector-curvature="0" />
    <path
       style="fill:none;stroke:#000000;stroke-width:0.665;stroke-linecap:butt;stroke-linejoin:miter;stroke-opacity:1;stroke-miterlimit:4;stroke-dasharray:none"
       d="m 171.12872,160.92857 c 0.37798,-0.28348 5.38616,-7.37054 5.38616,-7.37054"
       id="path1082"
       inkscape:connector-curvature="0" />
    <path
       style="fill:none;stroke:#000000;stroke-width:0.665;stroke-linecap:butt;stroke-linejoin:miter;stroke-opacity:1;stroke-miterlimit:4;stroke-dasharray:none"
       d="m 109.70759,154.59747 c 0.37797,0 6.04762,2.83482 6.04762,2.83482"
       id="path1084"
       inkscape:connector-curvature="0" />
  </g>
</svg>
