<?xml version="1.0" encoding="UTF-8" standalone="no"?>
<!-- Created with Inkscape (http://www.inkscape.org/) -->

<svg
   xmlns:dc="http://purl.org/dc/elements/1.1/"
   xmlns:cc="http://creativecommons.org/ns#"
   xmlns:rdf="http://www.w3.org/1999/02/22-rdf-syntax-ns#"
   xmlns:svg="http://www.w3.org/2000/svg"
   xmlns="http://www.w3.org/2000/svg"
   xmlns:sodipodi="http://sodipodi.sourceforge.net/DTD/sodipodi-0.dtd"
   xmlns:inkscape="http://www.inkscape.org/namespaces/inkscape"
   width="210mm"
   height="297mm"
   viewBox="0 0 210 297"
   version="1.1"
   id="svg2640"
   inkscape:export-filename="/home/josh/android/fishtank/assets_local/platform_1.png"
   inkscape:export-xdpi="46.17522"
   inkscape:export-ydpi="46.17522"
   inkscape:version="0.92.1 r"
   sodipodi:docname="platform_3.svg">
  <defs
     id="defs2634" />
  <sodipodi:namedview
     id="base"
     pagecolor="#ffffff"
     bordercolor="#666666"
     borderopacity="1.0"
     inkscape:pageopacity="0.0"
     inkscape:pageshadow="2"
     inkscape:zoom="1.979899"
     inkscape:cx="458.5652"
     inkscape:cy="551.97633"
     inkscape:document-units="mm"
     inkscape:current-layer="layer1"
     showgrid="false"
     inkscape:snap-nodes="false"
     inkscape:window-width="1918"
     inkscape:window-height="1042"
     inkscape:window-x="0"
     inkscape:window-y="18"
     inkscape:window-maximized="0" />
  <metadata
     id="metadata2637">
    <rdf:RDF>
      <cc:Work
         rdf:about="">
        <dc:format>image/svg+xml</dc:format>
        <dc:type
           rdf:resource="http://purl.org/dc/dcmitype/StillImage" />
        <dc:title></dc:title>
      </cc:Work>
    </rdf:RDF>
  </metadata>
  <g
     inkscape:label="Layer 1"
     inkscape:groupmode="layer"
     id="layer1">
    <path
       style="fill:#49546e;fill-opacity:1;stroke:#000000;stroke-width:2.16499996;stroke-linecap:butt;stroke-linejoin:miter;stroke-miterlimit:4;stroke-dasharray:none;stroke-opacity:1"
       d="m 39.370443,129.12188 c 0,0 4.669414,-1.41741 8.088095,-0.75595 l 7.421032,1.03943 7.587801,0.66146 c 0,0 0.750442,0.18899 2.584855,-0.94494 0,0 8.338241,-0.75595 14.758687,-0.18899 0,0 19.344718,0.28348 19.594865,0.66146 0.250149,0.37798 10.005902,-1.41741 10.005902,-1.41741 0,0 4.41925,3.1183 8.92189,2.17336 l 12.09048,-1.36072 c 0,0 9.17204,1.51191 11.50676,0.75596 0,0 13.75809,-1.7009 18.92779,0.75595 l 15.42576,-1.03944 13.17442,0.37798 c 0,0 7.92134,2.36235 9.08869,0.85045 0,0 1.41749,-0.75596 1.41749,0.66145 0,0 0.0833,6.04762 -1.16735,6.4256 l 1.08398,7.55952 0.75044,4.34673 0.16676,5.48065 c 0,0 -0.33352,0.66146 -1.00059,1.03944 l 0.41691,4.7247 c 0,0 -0.41691,1.51191 -1.75103,0.75595 l -11.00648,1.03944 c 0,0 -9.50559,1.22842 -12.75752,-0.47247 l -10.75632,-0.75595 c 0,0 -8.25486,2.26785 -12.50735,1.60639 0,0 -14.42516,-2.36235 -21.92958,-1.03943 0,0 -14.50854,-1.70089 -19.09458,-0.28348 0,0 -13.841472,1.98437 -18.9278,0.66146 0,0 -16.259571,1.03943 -22.179722,-1.22843 0,0 -15.175601,-0.0945 -19.34472,0.94494 0,0 -10.672948,0.66146 -11.42339,-0.66145 0,0 -1.000588,-4.25224 -0.833823,-8.78795 0,0 0.917206,-10.58333 0.667058,-13.51265 0,0 -0.917207,-5.10268 -0.250147,-7.65402 0,0 -0.166765,-1.81427 1.250737,-2.41904 z"
       id="path3187"
       inkscape:connector-curvature="0" />
    <ellipse
       style="opacity:1;fill:#2e3a4a;fill-opacity:1;stroke:none;stroke-width:1.93507481;stroke-miterlimit:4;stroke-dasharray:none;stroke-opacity:1"
       id="path5754"
       cx="43.259758"
       cy="130.9433"
       rx="0.56745577"
       ry="0.82276958" />
    <ellipse
       style="opacity:1;fill:#49546e;fill-opacity:1;stroke:none;stroke-width:1.31099999;stroke-miterlimit:4;stroke-dasharray:none;stroke-opacity:1"
       id="path5756"
       cx="82.304321"
       cy="139.10043"
       r="0.28348213" />
    <circle
       style="opacity:1;fill:#49546e;fill-opacity:1;stroke:none;stroke-width:1.31099999;stroke-miterlimit:4;stroke-dasharray:none;stroke-opacity:1"
       id="path5758"
       cx="102.80952"
       cy="141.84077"
       r="1.1339285" />
    <rect
       style="opacity:1;fill:#2e3a4a;fill-opacity:1;stroke:none;stroke-width:0.90101767;stroke-miterlimit:4;stroke-dasharray:none;stroke-opacity:1"
       id="rect5760"
       width="6.4014187"
       height="1.2650135"
       x="118.50924"
       y="126.2151"
       ry="0.63250673"
       rx="0.57512754"
       transform="matrix(0.99824114,0.05928436,0,1,0,0)" />
    <rect
       transform="matrix(0.94435412,0.32893052,-0.27236655,0.96219357,0,0)"
       rx="0.57512754"
       ry="0.63250673"
       y="123.14819"
       x="117.85278"
       height="1.2650135"
       width="6.4014187"
       id="rect5762"
       style="opacity:1;fill:#2e3a4a;fill-opacity:1;stroke:none;stroke-width:0.90101767;stroke-miterlimit:4;stroke-dasharray:none;stroke-opacity:1" />
    <rect
       style="opacity:1;fill:#2e3a4a;fill-opacity:1;stroke:none;stroke-width:0.95116419;stroke-miterlimit:4;stroke-dasharray:none;stroke-opacity:1"
       id="rect5764"
       width="5.7500663"
       height="1.5694335"
       x="-218.87224"
       y="-237.58038"
       ry="0.78471673"
       rx="0.51660758"
       transform="matrix(0.1308645,-0.99140026,-0.94623009,0.32349438,0,0)"
       inkscape:transform-center-x="0.26726957"
       inkscape:transform-center-y="0.80180869" />
    <path
       sodipodi:type="star"
       style="opacity:1;fill:#9b4a3b;fill-opacity:1;stroke:#000000;stroke-width:0.18800478;stroke-miterlimit:4;stroke-dasharray:none;stroke-opacity:1"
       id="path5766"
       sodipodi:sides="4"
       sodipodi:cx="99.00676"
       sodipodi:cy="156.93593"
       sodipodi:r1="2.6029165"
       sodipodi:r2="0.96910256"
       sodipodi:arg1="1.0232341"
       sodipodi:arg2="1.8392758"
       inkscape:flatsided="false"
       inkscape:rounded="0.64"
       inkscape:randomized="0"
       d="m 100.36186,159.15829 c -1.148087,0.65266 -0.32872,-0.97684 -1.61217,-1.28798 -1.250075,-0.30304 -1.329605,1.53894 -1.965291,0.42072 -0.652659,-1.14809 0.976836,-0.32872 1.287976,-1.61217 0.303048,-1.25008 -1.538939,-1.32961 -0.420713,-1.96529 1.148085,-0.65266 0.328713,0.97683 1.612167,1.28797 1.250071,0.30305 1.329601,-1.53894 1.965291,-0.42071 0.65266,1.14809 -0.97684,0.32871 -1.287976,1.61217 -0.303048,1.25007 1.538936,1.3296 0.420716,1.96529 z"
       inkscape:transform-center-x="-0.064884544"
       inkscape:transform-center-y="-0.18603679" />
    <circle
       style="opacity:1;fill:#8da7af;fill-opacity:1;stroke:#000000;stroke-width:0.24772844;stroke-miterlimit:4;stroke-dasharray:none;stroke-opacity:1"
       id="path5768"
       cx="99.009682"
       cy="156.9624"
       r="0.63129538" />
    <path
       inkscape:transform-center-y="-0.20598556"
       inkscape:transform-center-x="-0.071836859"
       d="m 168.58147,142.64405 c -1.2712,0.72265 -0.36397,-1.08158 -1.78505,-1.42609 -1.38413,-0.33554 -1.47219,1.70397 -2.17604,0.46583 -0.72264,-1.2712 1.08159,-0.36396 1.42609,-1.78505 0.33555,-1.38412 -1.70396,-1.47218 -0.46583,-2.17603 1.2712,-0.72265 0.36397,1.08158 1.78505,1.42609 1.38413,0.33554 1.47219,-1.70397 2.17604,-0.46583 0.72264,1.2712 -1.08159,0.36396 -1.42609,1.78505 -0.33555,1.38412 1.70396,1.47218 0.46583,2.17603 z"
       inkscape:randomized="0"
       inkscape:rounded="0.64"
       inkscape:flatsided="false"
       sodipodi:arg2="1.8392758"
       sodipodi:arg1="1.0232341"
       sodipodi:r2="1.0730236"
       sodipodi:r1="2.8820381"
       sodipodi:cy="140.18338"
       sodipodi:cx="167.08105"
       sodipodi:sides="4"
       id="path5776"
       style="opacity:1;fill:#866ba9;fill-opacity:1;stroke:#000000;stroke-width:0.20816532;stroke-miterlimit:4;stroke-dasharray:none;stroke-opacity:1"
       sodipodi:type="star" />
    <circle
       r="0.69899178"
       cy="140.21271"
       cx="167.0843"
       id="circle5778"
       style="opacity:1;fill:#9b9c3d;fill-opacity:1;stroke:#000000;stroke-width:0.27429339;stroke-miterlimit:4;stroke-dasharray:none;stroke-opacity:1" />
  </g>
</svg>
